<svg width="25" height="25" viewBox="0 0 25 25" fill="none" xmlns="http://www.w3.org/2000/svg">
<path d="M19.4058 5.38929C18.1311 4.80439 16.7641 4.37346 15.3349 4.12665C15.3089 4.12188 15.2829 4.13379 15.2695 4.15759C15.0937 4.47027 14.8989 4.87819 14.7626 5.19881C13.2253 4.96867 11.696 4.96867 10.1902 5.19881C10.0538 4.87106 9.85205 4.47027 9.67546 4.15759C9.66205 4.13458 9.63605 4.12268 9.61002 4.12665C8.18157 4.37267 6.81461 4.8036 5.53909 5.38929C5.52805 5.39405 5.51858 5.40199 5.5123 5.4123C2.91947 9.28593 2.20918 13.0644 2.55763 16.7959C2.5592 16.8142 2.56945 16.8317 2.58364 16.8428C4.29432 18.099 5.9514 18.8617 7.57771 19.3672C7.60374 19.3752 7.63131 19.3657 7.64788 19.3442C8.03258 18.8189 8.37551 18.2649 8.66954 17.6824C8.68689 17.6483 8.67033 17.6078 8.63486 17.5943C8.09092 17.388 7.57298 17.1364 7.07475 16.8507C7.03534 16.8277 7.03219 16.7713 7.06844 16.7443C7.17329 16.6658 7.27816 16.584 7.37827 16.5015C7.39638 16.4864 7.42162 16.4832 7.44292 16.4928C10.716 17.9871 14.2596 17.9871 17.4941 16.4928C17.5154 16.4824 17.5406 16.4856 17.5595 16.5007C17.6597 16.5832 17.7645 16.6658 17.8702 16.7443C17.9064 16.7713 17.904 16.8277 17.8646 16.8507C17.3664 17.1419 16.8485 17.388 16.3037 17.5935C16.2683 17.607 16.2525 17.6483 16.2698 17.6824C16.5702 18.2641 16.9131 18.818 17.2907 19.3434C17.3065 19.3657 17.3349 19.3752 17.3609 19.3672C18.9951 18.8617 20.6522 18.099 22.3628 16.8428C22.3778 16.8317 22.3873 16.815 22.3889 16.7967C22.8059 12.4826 21.6904 8.73517 19.4318 5.41309C19.4263 5.40199 19.4169 5.39405 19.4058 5.38929ZM9.15833 14.5238C8.17289 14.5238 7.36092 13.6191 7.36092 12.508C7.36092 11.3969 8.15715 10.4922 9.15833 10.4922C10.1674 10.4922 10.9715 11.4049 10.9557 12.508C10.9557 13.6191 10.1595 14.5238 9.15833 14.5238ZM15.8039 14.5238C14.8185 14.5238 14.0066 13.6191 14.0066 12.508C14.0066 11.3969 14.8028 10.4922 15.8039 10.4922C16.813 10.4922 17.6171 11.4049 17.6013 12.508C17.6013 13.6191 16.813 14.5238 15.8039 14.5238Z" fill="#F4F4F5"/>
</svg>
