<svg width="20" height="20" viewBox="0 0 20 20" fill="none" xmlns="http://www.w3.org/2000/svg">
<path d="M3.33317 14.1665H16.6665V9.1665H3.33317V14.1665ZM14.1665 12.9165C14.5137 12.9165 14.8089 12.795 15.0519 12.5519C15.295 12.3089 15.4165 12.0137 15.4165 11.6665C15.4165 11.3193 15.295 11.0241 15.0519 10.7811C14.8089 10.538 14.5137 10.4165 14.1665 10.4165C13.8193 10.4165 13.5241 10.538 13.2811 10.7811C13.038 11.0241 12.9165 11.3193 12.9165 11.6665C12.9165 12.0137 13.038 12.3089 13.2811 12.5519C13.5241 12.795 13.8193 12.9165 14.1665 12.9165ZM18.3332 7.49984H15.979L14.3123 5.83317H5.68734L4.02067 7.49984H1.6665L4.52067 4.64567C4.67345 4.49289 4.85053 4.37484 5.05192 4.2915C5.25331 4.20817 5.46512 4.1665 5.68734 4.1665H14.3123C14.5346 4.1665 14.7464 4.20817 14.9478 4.2915C15.1491 4.37484 15.3262 4.49289 15.479 4.64567L18.3332 7.49984ZM3.33317 15.8332C2.87484 15.8332 2.48248 15.67 2.15609 15.3436C1.8297 15.0172 1.6665 14.6248 1.6665 14.1665V7.49984H18.3332V14.1665C18.3332 14.6248 18.17 15.0172 17.8436 15.3436C17.5172 15.67 17.1248 15.8332 16.6665 15.8332H3.33317Z" fill="#F4F4F5"/>
</svg>
