<svg width="25" height="25" viewBox="0 0 25 25" fill="none" xmlns="http://www.w3.org/2000/svg">
<g clip-path="url(#clip0_9959_35758)">
<path d="M15.4751 4.12561V11.1256H5.6451L4.4751 12.2956V4.12561H15.4751ZM16.4751 2.12561H3.4751C2.9251 2.12561 2.4751 2.57561 2.4751 3.12561V17.1256L6.4751 13.1256H16.4751C17.0251 13.1256 17.4751 12.6756 17.4751 12.1256V3.12561C17.4751 2.57561 17.0251 2.12561 16.4751 2.12561ZM21.4751 6.12561H19.4751V15.1256H6.4751V17.1256C6.4751 17.6756 6.9251 18.1256 7.4751 18.1256H18.4751L22.4751 22.1256V7.12561C22.4751 6.57561 22.0251 6.12561 21.4751 6.12561Z" fill="#F4F4F5"/>
</g>
<defs>
<clipPath id="clip0_9959_35758">
<rect width="24" height="24" fill="white" transform="translate(0.475098 0.12561)"/>
</clipPath>
</defs>
</svg>
