<svg width="25" height="25" viewBox="0 0 25 25" fill="none" xmlns="http://www.w3.org/2000/svg">
<path d="M9.39429 18.8744H20.3943V16.1994H9.39429V18.8744ZM4.39429 9.54939H7.39429V6.87439H4.39429V9.54939ZM4.39429 14.2244H7.39429V11.5494H4.39429V14.2244ZM4.39429 18.8744H7.39429V16.1994H4.39429V18.8744ZM9.39429 14.2244H20.3943V11.5494H9.39429V14.2244ZM9.39429 9.54939H20.3943V6.87439H9.39429V9.54939ZM4.39429 20.8744C3.84429 20.8744 3.37345 20.6786 2.98179 20.2869C2.59012 19.8952 2.39429 19.4244 2.39429 18.8744V6.87439C2.39429 6.32439 2.59012 5.85356 2.98179 5.46189C3.37345 5.07022 3.84429 4.87439 4.39429 4.87439H20.3943C20.9443 4.87439 21.4151 5.07022 21.8068 5.46189C22.1985 5.85356 22.3943 6.32439 22.3943 6.87439V18.8744C22.3943 19.4244 22.1985 19.8952 21.8068 20.2869C21.4151 20.6786 20.9443 20.8744 20.3943 20.8744H4.39429Z" fill="#F4F4F5"/>
</svg>
