<svg width="25" height="25" viewBox="0 0 25 25" fill="none" xmlns="http://www.w3.org/2000/svg">
<path fill-rule="evenodd" clip-rule="evenodd" d="M18.3721 4.87439H6.40772C6.40772 4.87439 6.1358 2.87439 8.03922 2.87439H17.2844C18.644 2.87439 18.3721 4.87439 18.3721 4.87439ZM22.3943 20.5411V11.2077C22.3943 9.92439 21.4943 8.87439 20.3943 8.87439H4.39429C3.29429 8.87439 2.39429 9.92439 2.39429 11.2077V20.5411C2.39429 21.8244 3.29429 22.8744 4.39429 22.8744H20.3943C21.4943 22.8744 22.3943 21.8244 22.3943 20.5411ZM4.41219 7.87439H20.3647C20.3647 7.87439 20.7272 5.87439 18.9145 5.87439H6.58753C4.04963 5.87439 4.41219 7.87439 4.41219 7.87439ZM12.3943 11.8744L18.3943 15.8805L12.3943 19.8744L6.39429 15.8805L12.3943 11.8744Z" fill="#F4F4F5"/>
</svg>
