<svg width="18" height="18" viewBox="0 0 18 18" fill="none" xmlns="http://www.w3.org/2000/svg">
    <path fill-rule="evenodd" clip-rule="evenodd" d="M2.25 4.5H15.75C16.575 4.5 17.25 5.175 17.25 6V12C17.25 12.825 16.575 13.5 15.75 13.5H2.25C1.425 13.5 0.75 12.825 0.75 12V6C0.75 5.175 1.425 4.5 2.25 4.5ZM6 9.75H8.25V8.25H6V6H4.5V8.25H2.25V9.75H4.5V12H6V9.75ZM11.625 11.25C11.0025 11.25 10.5 10.7475 10.5 10.125C10.5 9.5025 11.0025 9 11.625 9C12.2475 9 12.75 9.5025 12.75 10.125C12.75 10.7475 12.2475 11.25 11.625 11.25ZM13.5 7.875C13.5 8.4975 14.0025 9 14.625 9C15.2475 9 15.75 8.4975 15.75 7.875C15.75 7.2525 15.2475 6.75 14.625 6.75C14.0025 6.75 13.5 7.2525 13.5 7.875Z" fill="white"/>
</svg>
