<svg width="200" height="200" viewBox="0 0 200 200" fill="none" xmlns="http://www.w3.org/2000/svg">
<path d="M30 96.1204L100 50L170 96.1204L100 142.241L30 96.1204Z" fill="#FB923C"/>
<path d="M30 132.858L100 86.7376L170 132.858L100 178.978L30 132.858Z" fill="#C6732E"/>
<path d="M100 142.073V179L170 132.927V96L100 142.073Z" fill="url(#paint0_linear_3258_754)"/>
<path d="M100 142.073V179L30 132.927V96L100 142.073Z" fill="url(#paint1_linear_3258_754)"/>
<path fill-rule="evenodd" clip-rule="evenodd" d="M32.5649 52.0115L21.6037 34.4526L25.8451 31.8049L36.8063 49.3638L32.5649 52.0115Z" fill="#FB923C"/>
<path fill-rule="evenodd" clip-rule="evenodd" d="M116.571 103.493L135.248 94.5691L137.403 99.0806L118.726 108.004L116.571 103.493Z" fill="#0F0F10"/>
<path fill-rule="evenodd" clip-rule="evenodd" d="M68.4799 17.8723L89.1767 17.5534L89.2537 22.5528L68.5569 22.8717L68.4799 17.8723Z" fill="#F4F5FE"/>
<path d="M69.5708 41.4845C72.0388 41.7772 73.8021 44.0152 73.5094 46.4832C73.2167 48.9512 70.9787 50.7145 68.5107 50.4218C66.0427 50.1291 64.2793 47.8911 64.5721 45.4231C64.8648 42.9551 67.1028 41.1917 69.5708 41.4845Z" fill="#FB923C"/>
<path d="M167.294 66.5105C169.762 66.8033 171.525 69.0413 171.232 71.5092C170.939 73.9772 168.701 75.7406 166.233 75.4479C163.765 75.1551 162.002 72.9171 162.295 70.4492C162.588 67.9812 164.826 66.2178 167.294 66.5105Z" fill="#FB923C"/>
<path d="M131.794 26.8407C134.262 27.1335 136.025 29.3715 135.732 31.8394C135.439 34.3074 133.201 36.0708 130.733 35.7781C128.265 35.4853 126.502 33.2473 126.795 30.7794C127.088 28.3114 129.326 26.548 131.794 26.8407Z" fill="#F2F3FE"/>
<path d="M100.232 79.5049C102.7 79.7976 104.464 82.0356 104.171 84.5036C103.878 86.9716 101.64 88.735 99.1721 88.4423C96.7041 88.1495 94.9408 85.9115 95.2335 83.4435C95.5262 80.9756 97.7642 79.2122 100.232 79.5049Z" fill="#EFF0FD"/>
<path fill-rule="evenodd" clip-rule="evenodd" d="M153.83 43.1316C154.32 45.393 154.241 45.8631 153.822 46.2822L157.357 49.8177C159.876 47.2991 159.157 44.0576 158.772 42.3245C158.752 42.2363 158.734 42.1521 158.716 42.0721C158.226 39.8115 158.306 39.3406 158.726 38.9206C159.145 38.5009 159.616 38.4213 161.876 38.9118C161.956 38.9292 162.04 38.9479 162.129 38.9674C163.861 39.3522 167.103 40.072 169.622 37.5532C172.14 35.0346 171.421 31.7928 171.037 30.0595C171.017 29.9714 170.999 29.8873 170.981 29.8074C170.491 27.546 170.571 27.0754 170.99 26.6561C171.41 26.2367 171.88 26.1572 174.142 26.6472C174.222 26.6645 174.306 26.6831 174.394 26.7026C176.127 27.0869 179.369 27.8055 181.889 25.2863L178.353 21.7508C177.933 22.1709 177.461 22.2503 175.201 21.7605C175.12 21.7432 175.036 21.7245 174.948 21.705C173.215 21.3207 169.973 20.6021 167.455 23.1205C164.936 25.6392 165.655 28.881 166.039 30.6143C166.059 30.7023 166.078 30.7864 166.095 30.8664C166.585 33.1277 166.505 33.5984 166.086 34.0177C165.667 34.4366 165.198 34.5162 162.937 34.0256C162.857 34.0082 162.773 33.9896 162.685 33.9701C160.952 33.5852 157.71 32.8655 155.19 35.3851C152.671 37.9045 153.39 41.1463 153.775 42.8799C153.794 42.9678 153.813 43.0518 153.83 43.1316Z" fill="#FB923C"/>
<path fill-rule="evenodd" clip-rule="evenodd" d="M47.7274 72.5897C45.4654 72.5363 44.5481 72.412 43.7356 71.3404L39.7515 74.3614C42.1059 77.4665 45.3628 77.5386 47.4207 77.5841C47.4848 77.5855 47.5477 77.5869 47.6094 77.5884C49.8707 77.6418 50.7888 77.7663 51.6021 78.8389C52.4153 79.9114 52.2874 80.8284 51.7282 83.0198C51.713 83.0795 51.6973 83.1405 51.6814 83.2026C51.1695 85.196 50.3593 88.3513 52.7139 91.4566C55.0684 94.5618 58.3256 94.6342 60.3837 94.6799C60.4477 94.6814 60.5105 94.6828 60.5721 94.6842C62.8341 94.7379 63.7519 94.8625 64.5646 95.9342C65.3773 97.006 65.2495 97.9233 64.6907 100.116C64.6756 100.176 64.66 100.236 64.6442 100.298C64.1328 102.293 63.3237 105.449 65.6789 108.555L69.663 105.534C68.8496 104.461 68.9774 103.543 69.5359 101.351C69.5512 101.291 69.5668 101.23 69.5828 101.168C70.094 99.1738 70.903 96.0181 68.5488 92.9132C66.1943 89.808 62.937 89.7356 60.8789 89.6899C60.815 89.6885 60.7522 89.6871 60.6906 89.6856C58.4285 89.632 57.5107 89.5074 56.6981 88.4357C55.8857 87.3643 56.0136 86.4481 56.573 84.2561C56.5881 84.1966 56.6037 84.1361 56.6195 84.0744C57.1315 82.0803 57.9418 78.9245 55.5863 75.818C53.231 72.7117 49.9735 72.6396 47.9151 72.594C47.8514 72.5926 47.7888 72.5912 47.7274 72.5897Z" fill="#F4F5FE"/>
<defs>
<linearGradient id="paint0_linear_3258_754" x1="125.152" y1="95.8446" x2="179.141" y2="152.464" gradientUnits="userSpaceOnUse">
<stop stop-color="#9099F0"/>
<stop offset="1" stop-color="white"/>
</linearGradient>
<linearGradient id="paint1_linear_3258_754" x1="106.172" y1="137.5" x2="-6.5126" y2="141.684" gradientUnits="userSpaceOnUse">
<stop stop-color="white"/>
<stop offset="1" stop-color="#9099F0"/>
</linearGradient>
</defs>
</svg>
