<svg width="200" height="200" viewBox="0 0 200 200" fill="none" xmlns="http://www.w3.org/2000/svg">
<mask id="mask0_4_3664" style="mask-type:alpha" maskUnits="userSpaceOnUse" x="31" y="86" width="138" height="92">
<path d="M32.0946 133.376C31.1046 132.726 31.1046 131.274 32.0946 130.624L99.0955 86.5944C99.6445 86.2336 100.355 86.2336 100.905 86.5944L167.905 130.624C168.895 131.274 168.895 132.726 167.905 133.376L100.905 177.406C100.355 177.766 99.6445 177.766 99.0955 177.406L32.0946 133.376Z" fill="url(#paint0_linear_4_3664)"/>
</mask>
<g mask="url(#mask0_4_3664)">
<path d="M32.0946 133.376C31.1046 132.726 31.1046 131.274 32.0946 130.624L99.0955 86.5944C99.6445 86.2336 100.355 86.2336 100.905 86.5944L167.905 130.624C168.895 131.274 168.895 132.726 167.905 133.376L100.905 177.406C100.355 177.766 99.6445 177.766 99.0955 177.406L32.0946 133.376Z" fill="#FB923C"/>
<g filter="url(#filter0_f_4_3664)">
<path d="M49.5201 112.963C48.4679 112.271 48.4679 110.729 49.5201 110.037L116.333 66.1317C116.916 65.7483 117.672 65.7483 118.255 66.1317L185.068 110.037C186.12 110.729 186.12 112.271 185.068 112.963L118.255 156.868C117.672 157.252 116.916 157.252 116.333 156.868L49.5201 112.963Z" fill="url(#paint1_linear_4_3664)"/>
</g>
</g>
<mask id="mask1_4_3664" style="mask-type:alpha" maskUnits="userSpaceOnUse" x="31" y="54" width="138" height="92">
<path d="M32.0946 101.376C31.1046 100.726 31.1046 99.2741 32.0946 98.6235L99.0955 54.5944C99.6445 54.2336 100.355 54.2336 100.905 54.5944L167.905 98.6235C168.895 99.2741 168.895 100.726 167.905 101.376L100.905 145.406C100.355 145.766 99.6445 145.766 99.0955 145.406L32.0946 101.376Z" fill="url(#paint2_linear_4_3664)"/>
</mask>
<g mask="url(#mask1_4_3664)">
<path d="M32.0946 101.376C31.1046 100.726 31.1046 99.2741 32.0946 98.6235L99.0955 54.5944C99.6445 54.2336 100.355 54.2336 100.905 54.5944L167.905 98.6235C168.895 99.2741 168.895 100.726 167.905 101.376L100.905 145.406C100.355 145.766 99.6445 145.766 99.0955 145.406L32.0946 101.376Z" fill="#FB923C"/>
<g filter="url(#filter1_f_4_3664)">
<path d="M49.5201 80.9629C48.4679 80.2715 48.4679 78.7285 49.5201 78.0371L116.333 34.1317C116.916 33.7483 117.672 33.7483 118.255 34.1317L185.068 78.0371C186.12 78.7285 186.12 80.2715 185.068 80.9629L118.255 124.868C117.672 125.252 116.916 125.252 116.333 124.868L49.5201 80.9629Z" fill="url(#paint3_linear_4_3664)"/>
</g>
</g>
<path d="M32.0946 69.3765C31.1046 68.7259 31.1046 67.2741 32.0946 66.6235L99.0955 22.5944C99.6445 22.2336 100.355 22.2336 100.905 22.5944L167.905 66.6235C168.895 67.2741 168.895 68.7259 167.905 69.3765L100.905 113.406C100.355 113.766 99.6445 113.766 99.0955 113.406L32.0946 69.3765Z" fill="url(#paint4_linear_4_3664)"/>
<defs>
<filter id="filter0_f_4_3664" x="43.378" y="60.4913" width="147.832" height="102.017" filterUnits="userSpaceOnUse" color-interpolation-filters="sRGB">
<feFlood flood-opacity="0" result="BackgroundImageFix"/>
<feBlend mode="normal" in="SourceGraphic" in2="BackgroundImageFix" result="shape"/>
<feGaussianBlur stdDeviation="2.67647" result="effect1_foregroundBlur_4_3664"/>
</filter>
<filter id="filter1_f_4_3664" x="43.378" y="28.4913" width="147.832" height="102.017" filterUnits="userSpaceOnUse" color-interpolation-filters="sRGB">
<feFlood flood-opacity="0" result="BackgroundImageFix"/>
<feBlend mode="normal" in="SourceGraphic" in2="BackgroundImageFix" result="shape"/>
<feGaussianBlur stdDeviation="2.67647" result="effect1_foregroundBlur_4_3664"/>
</filter>
<linearGradient id="paint0_linear_4_3664" x1="80.3035" y1="117.036" x2="112.111" y2="177.972" gradientUnits="userSpaceOnUse">
<stop stop-color="white"/>
<stop offset="1" stop-color="#9099F0"/>
</linearGradient>
<linearGradient id="paint1_linear_4_3664" x1="47.5191" y1="37.7724" x2="115.6" y2="194.199" gradientUnits="userSpaceOnUse">
<stop offset="0.46"/>
<stop offset="1" stop-color="#1D1D21" stop-opacity="0"/>
</linearGradient>
<linearGradient id="paint2_linear_4_3664" x1="80.3035" y1="85.0364" x2="112.111" y2="145.972" gradientUnits="userSpaceOnUse">
<stop stop-color="white"/>
<stop offset="1" stop-color="#9099F0"/>
</linearGradient>
<linearGradient id="paint3_linear_4_3664" x1="47.5191" y1="5.77245" x2="115.6" y2="162.199" gradientUnits="userSpaceOnUse">
<stop offset="0.46"/>
<stop offset="1" stop-color="#1D1D21" stop-opacity="0"/>
</linearGradient>
<linearGradient id="paint4_linear_4_3664" x1="80.3035" y1="53.0364" x2="112.111" y2="113.972" gradientUnits="userSpaceOnUse">
<stop stop-color="white"/>
<stop offset="1" stop-color="#9099F0"/>
</linearGradient>
</defs>
</svg>
