<svg width="60" height="60" viewBox="0 0 60 60" fill="none" xmlns="http://www.w3.org/2000/svg">
<path d="M7.18384 39.2235L30.3081 23.9879L53.4323 39.2235L30.3081 54.4592L7.18384 39.2235Z" fill="#FB923C"/>
<mask id="mask0_5642_33343" style="mask-type:alpha" maskUnits="userSpaceOnUse" x="7" y="23" width="47" height="32">
<path d="M7.30164 39.2235L30.4259 23.9879L53.5501 39.2235L30.4259 54.4592L7.30164 39.2235Z" fill="#FF8F28"/>
</mask>
<g mask="url(#mask0_5642_33343)">
<g filter="url(#filter0_f_5642_33343)">
<path d="M56.1323 25.5763L35.8684 47.0355V47.0352L15.8839 25.576L56.1323 25.5763Z" fill="url(#paint0_linear_5642_33343)"/>
</g>
</g>
<path d="M30.1517 41.4113L30.1517 6.01093L39.7513 6.01093L39.7513 19.8107L50.2513 19.8107L30.1517 41.4113Z" fill="url(#paint1_linear_5642_33343)"/>
<path d="M30.1514 41.4111L10.0518 19.8105L20.4531 19.8105L20.4531 6L30.1514 6L30.1514 41.4111Z" fill="url(#paint2_linear_5642_33343)"/>
<defs>
<filter id="filter0_f_5642_33343" x="11.8839" y="21.576" width="48.2483" height="29.4595" filterUnits="userSpaceOnUse" color-interpolation-filters="sRGB">
<feFlood flood-opacity="0" result="BackgroundImageFix"/>
<feBlend mode="normal" in="SourceGraphic" in2="BackgroundImageFix" result="shape"/>
<feGaussianBlur stdDeviation="2" result="effect1_foregroundBlur_5642_33343"/>
</filter>
<linearGradient id="paint0_linear_5642_33343" x1="74.1417" y1="51.306" x2="32.0667" y2="71.5031" gradientUnits="userSpaceOnUse">
<stop stop-color="#1D1D21" stop-opacity="0"/>
<stop offset="1"/>
</linearGradient>
<linearGradient id="paint1_linear_5642_33343" x1="37.4816" y1="14.694" x2="45.8991" y2="25.2458" gradientUnits="userSpaceOnUse">
<stop stop-color="#9099F0"/>
<stop offset="1" stop-color="white"/>
</linearGradient>
<linearGradient id="paint2_linear_5642_33343" x1="17.2738" y1="14.6369" x2="25.7398" y2="25.0714" gradientUnits="userSpaceOnUse">
<stop stop-color="white"/>
<stop offset="1" stop-color="#9099F0"/>
</linearGradient>
</defs>
</svg>
