<svg width="200" height="200" viewBox="0 0 200 200" fill="none" xmlns="http://www.w3.org/2000/svg">
<path d="M100.67 168.397C100.289 168.74 99.7102 168.74 99.3296 168.397L89.5596 159.578C52.4796 126.239 27.9996 104.18 27.9996 77.2656C27.9996 55.2062 45.4236 38.0013 67.5996 38.0013C79.7256 38.0013 91.3793 43.4187 99.2313 51.9877C99.6429 52.437 100.356 52.437 100.768 51.9877C108.62 43.4187 120.274 38.0013 132.4 38.0013C154.576 38.0013 172 55.2062 172 77.2656C172 104.18 147.52 126.239 110.44 159.578L100.67 168.397Z" fill="#FB923C"/>
<g filter="url(#filter0_f_2150_823)">
<path d="M99.1439 147.836C101.164 147.836 102.912 147.258 104.388 146.102C105.865 144.946 106.914 143.443 107.535 141.593L119.482 105.817C119.744 105.032 120.793 104.887 121.258 105.572L128.281 115.924C129.058 117.157 130.145 118.159 131.544 118.93C132.943 119.701 134.419 119.836 135.973 119.836H177.382C177.761 119.836 178.107 119.622 178.276 119.284L186.276 103.284C186.609 102.619 186.125 101.836 185.382 101.836H141.866C141.533 101.836 141.223 101.671 141.037 101.396L125.25 77.9988C124.318 76.6113 123.114 75.5707 121.637 74.8769C120.161 74.1832 118.568 73.8363 116.859 73.8363C114.839 73.8363 113.091 74.4144 111.614 75.5707C110.138 76.7269 109.089 78.2301 108.468 80.0801L96.5268 115.619C96.2627 116.405 95.2114 116.547 94.7489 115.858L87.9554 105.749C87.1784 104.515 86.0906 103.513 84.6921 102.743C83.2935 101.972 81.8172 101.836 80.2633 101.836H38.6182C38.2394 101.836 37.8931 102.05 37.7237 102.389L29.7237 118.389C29.3913 119.054 29.8748 119.836 30.6182 119.836H74.1374C74.4698 119.836 74.7805 120.001 74.9664 120.277L90.7525 143.674C91.6849 145.061 92.8892 146.102 94.3654 146.796C95.8417 147.489 97.4345 147.836 99.1439 147.836Z" fill="url(#paint0_linear_2150_823)"/>
<path d="M99.1439 147.836C101.164 147.836 102.912 147.258 104.388 146.102C105.865 144.946 106.914 143.443 107.535 141.593L119.482 105.817C119.744 105.032 120.793 104.887 121.258 105.572L128.281 115.924C129.058 117.157 130.145 118.159 131.544 118.93C132.943 119.701 134.419 119.836 135.973 119.836H177.382C177.761 119.836 178.107 119.622 178.276 119.284L186.276 103.284C186.609 102.619 186.125 101.836 185.382 101.836H141.866C141.533 101.836 141.223 101.671 141.037 101.396L125.25 77.9988C124.318 76.6113 123.114 75.5707 121.637 74.8769C120.161 74.1832 118.568 73.8363 116.859 73.8363C114.839 73.8363 113.091 74.4144 111.614 75.5707C110.138 76.7269 109.089 78.2301 108.468 80.0801L96.5268 115.619C96.2627 116.405 95.2114 116.547 94.7489 115.858L87.9554 105.749C87.1784 104.515 86.0906 103.513 84.6921 102.743C83.2935 101.972 81.8172 101.836 80.2633 101.836H38.6182C38.2394 101.836 37.8931 102.05 37.7237 102.389L29.7237 118.389C29.3913 119.054 29.8748 119.836 30.6182 119.836H74.1374C74.4698 119.836 74.7805 120.001 74.9664 120.277L90.7525 143.674C91.6849 145.061 92.8892 146.102 94.3654 146.796C95.8417 147.489 97.4345 147.836 99.1439 147.836Z" fill="url(#paint1_linear_2150_823)"/>
</g>
<g filter="url(#filter1_f_2150_823)">
<path d="M90.1439 132.836C92.164 132.836 93.9122 132.258 95.3885 131.102C96.8647 129.946 97.9137 128.443 98.5352 126.593L110.482 90.8171C110.744 90.0316 111.793 89.8871 112.258 90.5724L119.281 100.924C120.058 102.157 121.145 103.159 122.544 103.93C123.943 104.701 125.419 104.836 126.973 104.836H168.382C168.761 104.836 169.107 104.622 169.276 104.284L177.276 88.2835C177.609 87.6186 177.125 86.8363 176.382 86.8363H132.866C132.533 86.8363 132.223 86.6712 132.037 86.3956L116.25 62.9988C115.318 61.6113 114.114 60.5707 112.637 59.8769C111.161 59.1832 109.568 58.8363 107.859 58.8363C105.839 58.8363 104.091 59.4144 102.614 60.5707C101.138 61.7269 100.089 63.2301 99.4676 65.0801L87.5268 100.619C87.2627 101.405 86.2114 101.547 85.7489 100.858L78.9554 90.7488C78.1784 89.5155 77.0906 88.5134 75.6921 87.7426C74.2935 86.9717 72.8172 86.8363 71.2633 86.8363H29.6182C29.2394 86.8363 28.8931 87.0503 28.7237 87.3891L20.7237 103.389C20.3913 104.054 20.8748 104.836 21.6182 104.836H65.1374C65.4698 104.836 65.7805 105.001 65.9664 105.277L81.7525 128.674C82.6849 130.061 83.8892 131.102 85.3654 131.796C86.8417 132.489 88.4345 132.836 90.1439 132.836Z" fill="black" fill-opacity="0.25"/>
</g>
<path d="M91.1439 132.836C93.164 132.836 94.9122 132.258 96.3885 131.102C97.8647 129.946 98.9137 128.443 99.5352 126.593L111.482 90.8171C111.744 90.0316 112.793 89.8871 113.258 90.5724L120.281 100.924C121.058 102.157 122.145 103.159 123.544 103.93C124.943 104.701 126.419 104.836 127.973 104.836H169.382C169.761 104.836 170.107 104.622 170.276 104.284L178.276 88.2835C178.609 87.6186 178.125 86.8363 177.382 86.8363H133.866C133.533 86.8363 133.223 86.6712 133.037 86.3956L117.25 62.9988C116.318 61.6113 115.114 60.5707 113.637 59.8769C112.161 59.1832 110.568 58.8363 108.859 58.8363C106.839 58.8363 105.091 59.4144 103.614 60.5707C102.138 61.7269 101.089 63.2301 100.468 65.0801L88.5268 100.619C88.2627 101.405 87.2114 101.547 86.7489 100.858L79.9554 90.7488C79.1784 89.5155 78.0906 88.5134 76.6921 87.7426C75.2935 86.9717 73.8172 86.8363 72.2633 86.8363H30.6182C30.2394 86.8363 29.8931 87.0503 29.7237 87.3891L21.7237 103.389C21.3913 104.054 21.8748 104.836 22.6182 104.836H66.1374C66.4698 104.836 66.7805 105.001 66.9664 105.277L82.7525 128.674C83.6849 130.061 84.8892 131.102 86.3654 131.796C87.8417 132.489 89.4345 132.836 91.1439 132.836Z" fill="white"/>
<path d="M91.1439 132.836C93.164 132.836 94.9122 132.258 96.3885 131.102C97.8647 129.946 98.9137 128.443 99.5352 126.593L111.482 90.8171C111.744 90.0316 112.793 89.8871 113.258 90.5724L120.281 100.924C121.058 102.157 122.145 103.159 123.544 103.93C124.943 104.701 126.419 104.836 127.973 104.836H169.382C169.761 104.836 170.107 104.622 170.276 104.284L178.276 88.2835C178.609 87.6186 178.125 86.8363 177.382 86.8363H133.866C133.533 86.8363 133.223 86.6712 133.037 86.3956L117.25 62.9988C116.318 61.6113 115.114 60.5707 113.637 59.8769C112.161 59.1832 110.568 58.8363 108.859 58.8363C106.839 58.8363 105.091 59.4144 103.614 60.5707C102.138 61.7269 101.089 63.2301 100.468 65.0801L88.5268 100.619C88.2627 101.405 87.2114 101.547 86.7489 100.858L79.9554 90.7488C79.1784 89.5155 78.0906 88.5134 76.6921 87.7426C75.2935 86.9717 73.8172 86.8363 72.2633 86.8363H30.6182C30.2394 86.8363 29.8931 87.0503 29.7237 87.3891L21.7237 103.389C21.3913 104.054 21.8748 104.836 22.6182 104.836H66.1374C66.4698 104.836 66.7805 105.001 66.9664 105.277L82.7525 128.674C83.6849 130.061 84.8892 131.102 86.3654 131.796C87.8417 132.489 89.4345 132.836 91.1439 132.836Z" fill="url(#paint2_linear_2150_823)"/>
<path d="M91.1439 132.836C93.164 132.836 94.9122 132.258 96.3885 131.102C97.8647 129.946 98.9137 128.443 99.5352 126.593L111.482 90.8171C111.744 90.0316 112.793 89.8871 113.258 90.5724L120.281 100.924C121.058 102.157 122.145 103.159 123.544 103.93C124.943 104.701 126.419 104.836 127.973 104.836H169.382C169.761 104.836 170.107 104.622 170.276 104.284L178.276 88.2835C178.609 87.6186 178.125 86.8363 177.382 86.8363H133.866C133.533 86.8363 133.223 86.6712 133.037 86.3956L117.25 62.9988C116.318 61.6113 115.114 60.5707 113.637 59.8769C112.161 59.1832 110.568 58.8363 108.859 58.8363C106.839 58.8363 105.091 59.4144 103.614 60.5707C102.138 61.7269 101.089 63.2301 100.468 65.0801L88.5268 100.619C88.2627 101.405 87.2114 101.547 86.7489 100.858L79.9554 90.7488C79.1784 89.5155 78.0906 88.5134 76.6921 87.7426C75.2935 86.9717 73.8172 86.8363 72.2633 86.8363H30.6182C30.2394 86.8363 29.8931 87.0503 29.7237 87.3891L21.7237 103.389C21.3913 104.054 21.8748 104.836 22.6182 104.836H66.1374C66.4698 104.836 66.7805 105.001 66.9664 105.277L82.7525 128.674C83.6849 130.061 84.8892 131.102 86.3654 131.796C87.8417 132.489 89.4345 132.836 91.1439 132.836Z" fill="url(#paint3_linear_2150_823)"/>
<path d="M91.1439 132.836C93.164 132.836 94.9122 132.258 96.3885 131.102C97.8647 129.946 98.9137 128.443 99.5352 126.593L111.482 90.8171C111.744 90.0316 112.793 89.8871 113.258 90.5724L120.281 100.924C121.058 102.157 122.145 103.159 123.544 103.93C124.943 104.701 126.419 104.836 127.973 104.836H169.382C169.761 104.836 170.107 104.622 170.276 104.284L178.276 88.2835C178.609 87.6186 178.125 86.8363 177.382 86.8363H133.866C133.533 86.8363 133.223 86.6712 133.037 86.3956L117.25 62.9988C116.318 61.6113 115.114 60.5707 113.637 59.8769C112.161 59.1832 110.568 58.8363 108.859 58.8363C106.839 58.8363 105.091 59.4144 103.614 60.5707C102.138 61.7269 101.089 63.2301 100.468 65.0801L88.5268 100.619C88.2627 101.405 87.2114 101.547 86.7489 100.858L79.9554 90.7488C79.1784 89.5155 78.0906 88.5134 76.6921 87.7426C75.2935 86.9717 73.8172 86.8363 72.2633 86.8363H30.6182C30.2394 86.8363 29.8931 87.0503 29.7237 87.3891L21.7237 103.389C21.3913 104.054 21.8748 104.836 22.6182 104.836H66.1374C66.4698 104.836 66.7805 105.001 66.9664 105.277L82.7525 128.674C83.6849 130.061 84.8892 131.102 86.3654 131.796C87.8417 132.489 89.4345 132.836 91.1439 132.836Z" fill="url(#paint4_linear_2150_823)"/>
<defs>
<filter id="filter0_f_2150_823" x="23.6168" y="67.8363" width="168.766" height="86" filterUnits="userSpaceOnUse" color-interpolation-filters="sRGB">
<feFlood flood-opacity="0" result="BackgroundImageFix"/>
<feBlend mode="normal" in="SourceGraphic" in2="BackgroundImageFix" result="shape"/>
<feGaussianBlur stdDeviation="3" result="effect1_foregroundBlur_2150_823"/>
</filter>
<filter id="filter1_f_2150_823" x="7.61682" y="45.8363" width="182.766" height="100" filterUnits="userSpaceOnUse" color-interpolation-filters="sRGB">
<feFlood flood-opacity="0" result="BackgroundImageFix"/>
<feBlend mode="normal" in="SourceGraphic" in2="BackgroundImageFix" result="shape"/>
<feGaussianBlur stdDeviation="6.5" result="effect1_foregroundBlur_2150_823"/>
</filter>
<linearGradient id="paint0_linear_2150_823" x1="99.9999" y1="62.5" x2="100.5" y2="152" gradientUnits="userSpaceOnUse">
<stop/>
<stop offset="1" stop-opacity="0"/>
</linearGradient>
<linearGradient id="paint1_linear_2150_823" x1="118.5" y1="121" x2="83.9999" y2="111" gradientUnits="userSpaceOnUse">
<stop stop-opacity="0"/>
<stop offset="0.390978" stop-opacity="0.5"/>
<stop offset="1" stop-opacity="0"/>
</linearGradient>
<linearGradient id="paint2_linear_2150_823" x1="88.9663" y1="100.38" x2="91.5628" y2="126.994" gradientUnits="userSpaceOnUse">
<stop stop-color="white" stop-opacity="0"/>
<stop offset="1" stop-color="#9099F0"/>
</linearGradient>
<linearGradient id="paint3_linear_2150_823" x1="175.3" y1="80.2573" x2="185.037" y2="105.573" gradientUnits="userSpaceOnUse">
<stop stop-color="white" stop-opacity="0"/>
<stop offset="1" stop-color="#9099F0"/>
</linearGradient>
<linearGradient id="paint4_linear_2150_823" x1="-2.5599" y1="65.3275" x2="-2.5599" y2="128.942" gradientUnits="userSpaceOnUse">
<stop stop-color="white" stop-opacity="0"/>
<stop offset="1" stop-color="#9099F0"/>
</linearGradient>
</defs>
</svg>
