<svg width="60" height="60" viewBox="0 0 60 60" fill="none" xmlns="http://www.w3.org/2000/svg">
<path d="M30 28.7978V48.9L53.7 38.0959L53.7 18L30 28.7978Z" fill="url(#paint0_linear_3543_2070)"/>
<path d="M30 28.7978V48.9L53.7 38.0959L53.7 18L30 28.7978Z" fill="url(#paint1_linear_3543_2070)"/>
<path d="M30 28.7978V48.9L53.7 38.0959L53.7 18L30 28.7978Z" fill="#FB923C"/>
<path d="M30 28.7978V48.9L6.3 38.0959L6.30002 18L30 28.7978Z" fill="url(#paint2_linear_3543_2070)"/>
<path d="M30 28.7978V48.9L6.3 38.0959L6.30002 18L30 28.7978Z" fill="url(#paint3_linear_3543_2070)"/>
<path d="M30 28.7978V48.9L6.3 38.0959L6.30002 18L30 28.7978Z" fill="#FB923C"/>
<mask id="mask0_3543_2070" style="mask-type:alpha" maskUnits="userSpaceOnUse" x="30" y="18" width="24" height="31">
<path d="M53.7 38.1062V17.9999L30 28.8062L30 48.9062L53.7 38.1062Z" fill="url(#paint4_linear_3543_2070)"/>
<path d="M53.7 38.1062V17.9999L30 28.8062L30 48.9062L53.7 38.1062Z" fill="url(#paint5_linear_3543_2070)"/>
<path d="M53.7 38.1062V17.9999L30 28.8062L30 48.9062L53.7 38.1062Z" fill="#FB923C"/>
</mask>
<g mask="url(#mask0_3543_2070)">
<g style="mix-blend-mode:multiply" opacity="0.45" filter="url(#filter0_f_3543_2070)">
<path d="M38.7425 21.9959C47.4771 15.1635 58.5199 14.19 63.4073 19.8216C68.2947 25.4532 65.1759 35.5572 56.4414 42.3896C47.7068 49.222 36.664 50.1955 31.7766 44.5639C26.8892 38.9323 30.008 28.8283 38.7425 21.9959Z" fill="url(#paint6_linear_3543_2070)"/>
</g>
</g>
<path d="M30 28.8V48.9L51 35.1V15L30 28.8Z" fill="url(#paint7_linear_3543_2070)"/>
<path d="M30 28.8V48.9L51 35.1V15L30 28.8Z" fill="url(#paint8_linear_3543_2070)"/>
<path d="M30 28.8V48.9L51 35.1V15L30 28.8Z" fill="url(#paint9_linear_3543_2070)"/>
<mask id="mask1_3543_2070" style="mask-type:alpha" maskUnits="userSpaceOnUse" x="6" y="18" width="24" height="31">
<path d="M30 28.7978V48.9L6.3 38.0959L6.30002 18L30 28.7978Z" fill="url(#paint10_linear_3543_2070)"/>
<path d="M30 28.7978V48.9L6.3 38.0959L6.30002 18L30 28.7978Z" fill="url(#paint11_linear_3543_2070)"/>
<path d="M30 28.7978V48.9L6.3 38.0959L6.30002 18L30 28.7978Z" fill="#FB923C"/>
</mask>
<g mask="url(#mask1_3543_2070)">
<g style="mix-blend-mode:multiply" opacity="0.45" filter="url(#filter1_f_3543_2070)">
<path d="M15.7998 44.9104C24.0921 51.7427 34.5758 52.7162 39.2157 47.0846C43.8557 41.4531 40.8948 31.349 32.6025 24.5166C24.3102 17.6843 13.8265 16.7108 9.1866 22.3424C4.54666 27.9739 7.5075 38.078 15.7998 44.9104Z" fill="url(#paint12_linear_3543_2070)"/>
</g>
</g>
<path d="M30 28.8V48.9064L8.99998 35.1L9 15L30 28.8Z" fill="url(#paint13_linear_3543_2070)"/>
<path d="M30 28.8V48.9064L8.99998 35.1L9 15L30 28.8Z" fill="url(#paint14_linear_3543_2070)"/>
<path d="M30 28.8V48.9064L8.99998 35.1L9 15L30 28.8Z" fill="url(#paint15_linear_3543_2070)"/>
<mask id="mask2_3543_2070" style="mask-type:alpha" maskUnits="userSpaceOnUse" x="9" y="15" width="21" height="34">
<path d="M30 28.8V48.9064L8.99998 35.1L9 15L30 28.8Z" fill="url(#paint16_linear_3543_2070)"/>
<path d="M30 28.8V48.9064L8.99998 35.1L9 15L30 28.8Z" fill="url(#paint17_linear_3543_2070)"/>
<path d="M30 28.8V48.9064L8.99998 35.1L9 15L30 28.8Z" fill="url(#paint18_linear_3543_2070)"/>
</mask>
<g mask="url(#mask2_3543_2070)">
<g style="mix-blend-mode:multiply" opacity="0.45" filter="url(#filter2_f_3543_2070)">
<path d="M18.1998 41.9104C26.4922 48.7427 36.9758 49.7162 41.6158 44.0846C46.2557 38.4531 43.2949 28.349 35.0025 21.5166C26.7102 14.6843 16.2266 13.7108 11.5866 19.3424C6.94669 24.9739 9.90753 35.078 18.1998 41.9104Z" fill="url(#paint19_linear_3543_2070)"/>
</g>
</g>
<mask id="mask3_3543_2070" style="mask-type:alpha" maskUnits="userSpaceOnUse" x="30" y="15" width="21" height="34">
<path d="M30 28.8V48.9064L51 35.1L51 15L30 28.8Z" fill="url(#paint20_linear_3543_2070)"/>
<path d="M30 28.8V48.9064L51 35.1L51 15L30 28.8Z" fill="url(#paint21_linear_3543_2070)"/>
<path d="M30 28.8V48.9064L51 35.1L51 15L30 28.8Z" fill="url(#paint22_linear_3543_2070)"/>
</mask>
<g mask="url(#mask3_3543_2070)">
<g style="mix-blend-mode:multiply" opacity="0.45" filter="url(#filter3_f_3543_2070)">
<path d="M41.8002 41.9104C33.5078 48.7427 23.0242 49.7162 18.3842 44.0846C13.7443 38.4531 16.7051 28.349 24.9975 21.5166C33.2898 14.6843 43.7734 13.7108 48.4134 19.3424C53.0533 24.9739 50.0925 35.078 41.8002 41.9104Z" fill="url(#paint23_linear_3543_2070)"/>
</g>
</g>
<path d="M30 28.7998V48.9062L11.1 33.8998L11.1 13.7998L30 28.7998Z" fill="url(#paint24_linear_3543_2070)"/>
<path d="M30 28.7998V48.9062L11.1 33.8998L11.1 13.7998L30 28.7998Z" fill="url(#paint25_linear_3543_2070)"/>
<path d="M30 28.7998V48.9062L11.1 33.8998L11.1 13.7998L30 28.7998Z" fill="url(#paint26_linear_3543_2070)"/>
<path d="M48.9 33.9063V13.7999L30 28.8063L30 48.9062L48.9 33.9063Z" fill="url(#paint27_linear_3543_2070)"/>
<path d="M48.9 33.9063V13.7999L30 28.8063L30 48.9062L48.9 33.9063Z" fill="url(#paint28_linear_3543_2070)"/>
<path d="M48.9 33.9063V13.7999L30 28.8063L30 48.9062L48.9 33.9063Z" fill="url(#paint29_linear_3543_2070)"/>
<defs>
<filter id="filter0_f_3543_2070" x="23.1659" y="9.86064" width="48.8521" height="44.6645" filterUnits="userSpaceOnUse" color-interpolation-filters="sRGB">
<feFlood flood-opacity="0" result="BackgroundImageFix"/>
<feBlend mode="normal" in="SourceGraphic" in2="BackgroundImageFix" result="shape"/>
<feGaussianBlur stdDeviation="3.15" result="effect1_foregroundBlur_3543_2070"/>
</filter>
<filter id="filter1_f_3543_2070" x="0.692859" y="12.3812" width="47.0166" height="44.6645" filterUnits="userSpaceOnUse" color-interpolation-filters="sRGB">
<feFlood flood-opacity="0" result="BackgroundImageFix"/>
<feBlend mode="normal" in="SourceGraphic" in2="BackgroundImageFix" result="shape"/>
<feGaussianBlur stdDeviation="3.15" result="effect1_foregroundBlur_3543_2070"/>
</filter>
<filter id="filter2_f_3543_2070" x="3.09288" y="9.38115" width="47.0166" height="44.6645" filterUnits="userSpaceOnUse" color-interpolation-filters="sRGB">
<feFlood flood-opacity="0" result="BackgroundImageFix"/>
<feBlend mode="normal" in="SourceGraphic" in2="BackgroundImageFix" result="shape"/>
<feGaussianBlur stdDeviation="3.15" result="effect1_foregroundBlur_3543_2070"/>
</filter>
<filter id="filter3_f_3543_2070" x="9.89049" y="9.38115" width="47.0166" height="44.6645" filterUnits="userSpaceOnUse" color-interpolation-filters="sRGB">
<feFlood flood-opacity="0" result="BackgroundImageFix"/>
<feBlend mode="normal" in="SourceGraphic" in2="BackgroundImageFix" result="shape"/>
<feGaussianBlur stdDeviation="3.15" result="effect1_foregroundBlur_3543_2070"/>
</filter>
<linearGradient id="paint0_linear_3543_2070" x1="46.687" y1="25.3821" x2="49.1608" y2="45.8866" gradientUnits="userSpaceOnUse">
<stop stop-color="#9099F0"/>
<stop offset="1" stop-color="white"/>
</linearGradient>
<linearGradient id="paint1_linear_3543_2070" x1="37.948" y1="31.3039" x2="46.1702" y2="47.6518" gradientUnits="userSpaceOnUse">
<stop stop-color="#9099F0"/>
<stop offset="1" stop-color="white"/>
</linearGradient>
<linearGradient id="paint2_linear_3543_2070" x1="13.313" y1="25.3821" x2="10.8392" y2="45.8866" gradientUnits="userSpaceOnUse">
<stop stop-color="#9099F0"/>
<stop offset="1" stop-color="white"/>
</linearGradient>
<linearGradient id="paint3_linear_3543_2070" x1="22.052" y1="31.3039" x2="13.8298" y2="47.6518" gradientUnits="userSpaceOnUse">
<stop stop-color="#9099F0"/>
<stop offset="1" stop-color="white"/>
</linearGradient>
<linearGradient id="paint4_linear_3543_2070" x1="37.013" y1="41.5226" x2="34.5382" y2="21.014" gradientUnits="userSpaceOnUse">
<stop stop-color="#9099F0"/>
<stop offset="1" stop-color="white"/>
</linearGradient>
<linearGradient id="paint5_linear_3543_2070" x1="45.7521" y1="35.5997" x2="37.5271" y2="19.2497" gradientUnits="userSpaceOnUse">
<stop stop-color="#9099F0"/>
<stop offset="1" stop-color="white"/>
</linearGradient>
<linearGradient id="paint6_linear_3543_2070" x1="34.2984" y1="33.7122" x2="67.4966" y2="11.2054" gradientUnits="userSpaceOnUse">
<stop/>
<stop offset="1" stop-color="#1D1D21" stop-opacity="0"/>
</linearGradient>
<linearGradient id="paint7_linear_3543_2070" x1="45.8055" y1="25.3277" x2="48.411" y2="45.8886" gradientUnits="userSpaceOnUse">
<stop stop-color="#9099F0"/>
<stop offset="1" stop-color="white"/>
</linearGradient>
<linearGradient id="paint8_linear_3543_2070" x1="27.766" y1="39.4766" x2="45.3434" y2="46.7363" gradientUnits="userSpaceOnUse">
<stop stop-color="#9099F0"/>
<stop offset="1" stop-color="white"/>
</linearGradient>
<linearGradient id="paint9_linear_3543_2070" x1="27.45" y1="45.75" x2="45.1415" y2="10.1582" gradientUnits="userSpaceOnUse">
<stop stop-color="#9099F0"/>
<stop offset="1" stop-color="white"/>
</linearGradient>
<linearGradient id="paint10_linear_3543_2070" x1="13.313" y1="25.3821" x2="10.8392" y2="45.8866" gradientUnits="userSpaceOnUse">
<stop stop-color="#9099F0"/>
<stop offset="1" stop-color="white"/>
</linearGradient>
<linearGradient id="paint11_linear_3543_2070" x1="22.052" y1="31.3039" x2="13.8298" y2="47.6518" gradientUnits="userSpaceOnUse">
<stop stop-color="#9099F0"/>
<stop offset="1" stop-color="white"/>
</linearGradient>
<linearGradient id="paint12_linear_3543_2070" x1="11.5807" y1="33.1941" x2="44.109" y2="54.1301" gradientUnits="userSpaceOnUse">
<stop/>
<stop offset="1" stop-color="#1D1D21" stop-opacity="0"/>
</linearGradient>
<linearGradient id="paint13_linear_3543_2070" x1="14.1579" y1="25.3837" x2="11.5552" y2="45.86" gradientUnits="userSpaceOnUse">
<stop stop-color="#9099F0"/>
<stop offset="1" stop-color="white"/>
</linearGradient>
<linearGradient id="paint14_linear_3543_2070" x1="22.4545" y1="31.3066" x2="13.9784" y2="47.3028" gradientUnits="userSpaceOnUse">
<stop stop-color="#9099F0"/>
<stop offset="1" stop-color="white"/>
</linearGradient>
<linearGradient id="paint15_linear_3543_2070" x1="6.29998" y1="12.9" x2="43.2276" y2="42.4866" gradientUnits="userSpaceOnUse">
<stop stop-color="white"/>
<stop offset="1" stop-color="#9099F0"/>
</linearGradient>
<linearGradient id="paint16_linear_3543_2070" x1="14.1579" y1="25.3837" x2="11.5552" y2="45.86" gradientUnits="userSpaceOnUse">
<stop stop-color="#9099F0"/>
<stop offset="1" stop-color="white"/>
</linearGradient>
<linearGradient id="paint17_linear_3543_2070" x1="22.4545" y1="31.3066" x2="13.9784" y2="47.3028" gradientUnits="userSpaceOnUse">
<stop stop-color="#9099F0"/>
<stop offset="1" stop-color="white"/>
</linearGradient>
<linearGradient id="paint18_linear_3543_2070" x1="6.29998" y1="12.9" x2="43.2276" y2="42.4866" gradientUnits="userSpaceOnUse">
<stop stop-color="white"/>
<stop offset="1" stop-color="#9099F0"/>
</linearGradient>
<linearGradient id="paint19_linear_3543_2070" x1="13.9807" y1="30.1941" x2="46.509" y2="51.1301" gradientUnits="userSpaceOnUse">
<stop/>
<stop offset="1" stop-color="#1D1D21" stop-opacity="0"/>
</linearGradient>
<linearGradient id="paint20_linear_3543_2070" x1="45.8421" y1="25.3837" x2="48.4448" y2="45.86" gradientUnits="userSpaceOnUse">
<stop stop-color="#9099F0"/>
<stop offset="1" stop-color="white"/>
</linearGradient>
<linearGradient id="paint21_linear_3543_2070" x1="37.5455" y1="31.3066" x2="46.0216" y2="47.3028" gradientUnits="userSpaceOnUse">
<stop stop-color="#9099F0"/>
<stop offset="1" stop-color="white"/>
</linearGradient>
<linearGradient id="paint22_linear_3543_2070" x1="53.7" y1="12.9" x2="16.7724" y2="42.4866" gradientUnits="userSpaceOnUse">
<stop stop-color="white"/>
<stop offset="1" stop-color="#9099F0"/>
</linearGradient>
<linearGradient id="paint23_linear_3543_2070" x1="46.0193" y1="30.1941" x2="13.491" y2="51.1301" gradientUnits="userSpaceOnUse">
<stop/>
<stop offset="1" stop-color="#1D1D21" stop-opacity="0"/>
</linearGradient>
<linearGradient id="paint24_linear_3543_2070" x1="14.1579" y1="25.3835" x2="11.5552" y2="45.8598" gradientUnits="userSpaceOnUse">
<stop stop-color="#9099F0"/>
<stop offset="1" stop-color="white"/>
</linearGradient>
<linearGradient id="paint25_linear_3543_2070" x1="22.4545" y1="31.3064" x2="13.9784" y2="47.3026" gradientUnits="userSpaceOnUse">
<stop stop-color="#9099F0"/>
<stop offset="1" stop-color="white"/>
</linearGradient>
<linearGradient id="paint26_linear_3543_2070" x1="6.29998" y1="12.8998" x2="43.2276" y2="42.4864" gradientUnits="userSpaceOnUse">
<stop stop-color="white"/>
<stop offset="1" stop-color="#9099F0"/>
</linearGradient>
<linearGradient id="paint27_linear_3543_2070" x1="33.0579" y1="37.3226" x2="30.4552" y2="16.8462" gradientUnits="userSpaceOnUse">
<stop stop-color="#9099F0"/>
<stop offset="1" stop-color="white"/>
</linearGradient>
<linearGradient id="paint28_linear_3543_2070" x1="41.3545" y1="31.3997" x2="32.8784" y2="15.4035" gradientUnits="userSpaceOnUse">
<stop stop-color="#9099F0"/>
<stop offset="1" stop-color="white"/>
</linearGradient>
<linearGradient id="paint29_linear_3543_2070" x1="25.2" y1="49.8063" x2="62.1276" y2="20.2196" gradientUnits="userSpaceOnUse">
<stop stop-color="white"/>
<stop offset="1" stop-color="#9099F0"/>
</linearGradient>
</defs>
</svg>
