<svg width="42" height="43" viewBox="0 0 42 43" fill="none" xmlns="http://www.w3.org/2000/svg">
<path d="M2.04533 14.326C1.73597 14.2072 1.58065 13.8598 1.70821 13.5539C3.03058 10.3834 5.11348 7.58347 7.77655 5.40377C10.5945 3.09727 13.9649 1.56485 17.5555 0.95755C21.1461 0.350248 24.8329 0.68902 28.2527 1.94048C31.6725 3.19194 34.7071 5.31289 37.0576 8.0943C39.4081 10.8757 40.9933 14.2216 41.6569 17.8022C42.3205 21.3828 42.0397 25.0745 40.8421 28.5135C39.6445 31.9525 37.5715 35.0201 34.8273 37.414C32.234 39.6763 29.126 41.2631 25.7793 42.0382C25.4565 42.113 25.1398 41.9019 25.0743 41.577L24.483 38.6446C24.4175 38.3198 24.6281 38.0044 24.9504 37.9273C27.5832 37.2977 30.0275 36.039 32.072 34.2555C34.2673 32.3404 35.9257 29.8863 36.8838 27.1351C37.8419 24.3839 38.0665 21.4305 37.5356 18.566C37.0047 15.7015 35.7366 13.0248 33.8562 10.7997C31.9758 8.57458 29.5481 6.87782 26.8122 5.87665C24.0764 4.87549 21.1269 4.60447 18.2545 5.09031C15.382 5.57615 12.6857 6.80208 10.4313 8.64729C8.3319 10.3657 6.68318 12.5659 5.62326 15.0568C5.49351 15.3617 5.14746 15.5168 4.8381 15.398L2.04533 14.326Z" fill="#FB923C"/>
<path d="M8.23925 37.442C8.03071 37.6995 8.06996 38.0781 8.33335 38.2792C11.5257 40.7164 15.3517 42.1851 19.355 42.51C19.6852 42.5368 19.9677 42.2817 19.9851 41.9508L20.1416 38.9634C20.159 38.6325 19.9046 38.3513 19.5745 38.3221C16.4552 38.0465 13.475 36.9025 10.9724 35.0201C10.7076 34.8209 10.3304 34.8596 10.1218 35.1172L8.23925 37.442Z" fill="#FB923C"/>
<path d="M0.693211 21.6214C0.361839 21.6214 0.0923157 21.8901 0.101799 22.2214C0.216743 26.2361 1.48316 30.1337 3.74997 33.4493C3.93699 33.7228 4.31302 33.7818 4.5811 33.5871L7.00124 31.8287C7.26933 31.634 7.32778 31.2593 7.14272 30.9844C5.39387 28.3868 4.40742 25.3508 4.2954 22.2213C4.28355 21.8901 4.01604 21.6214 3.68467 21.6214H0.693211Z" fill="#FB923C"/>
<g style="mix-blend-mode:multiply" filter="url(#filter0_f_543_16985)">
<path d="M20.8755 31.9022C25.4201 35.6468 31.1657 36.1803 33.7087 33.0939C36.2516 30.0075 34.6289 24.4699 30.0843 20.7254C25.5396 16.9809 19.794 16.4473 17.2511 19.5337C14.7081 22.6202 16.3308 28.1577 20.8755 31.9022Z" fill="url(#paint0_linear_543_16985)"/>
</g>
<circle cx="21" cy="21" r="7.5" fill="url(#paint1_radial_543_16985)"/>
<defs>
<filter id="filter0_f_543_16985" x="14.9783" y="16.4568" width="21.0024" height="19.7133" filterUnits="userSpaceOnUse" color-interpolation-filters="sRGB">
<feFlood flood-opacity="0" result="BackgroundImageFix"/>
<feBlend mode="normal" in="SourceGraphic" in2="BackgroundImageFix" result="shape"/>
<feGaussianBlur stdDeviation="0.535269" result="effect1_foregroundBlur_543_16985"/>
</filter>
<linearGradient id="paint0_linear_543_16985" x1="18.5632" y1="25.4811" x2="36.3904" y2="36.9552" gradientUnits="userSpaceOnUse">
<stop/>
<stop offset="1" stop-color="#1D1D21" stop-opacity="0"/>
</linearGradient>
<radialGradient id="paint1_radial_543_16985" cx="0" cy="0" r="1" gradientUnits="userSpaceOnUse" gradientTransform="translate(16.3424 17.153) rotate(17.7249) scale(18.8646)">
<stop offset="0.365346" stop-color="white"/>
<stop offset="0.64903" stop-color="#7D88ED"/>
<stop offset="0.748224" stop-color="white"/>
</radialGradient>
</defs>
</svg>
