<svg width="60" height="60" viewBox="0 0 60 60" fill="none" xmlns="http://www.w3.org/2000/svg">
<path d="M11.0453 23.326C10.736 23.2072 10.5806 22.8598 10.7082 22.5539C12.0306 19.3834 14.1135 16.5835 16.7766 14.4038C19.5945 12.0973 22.9649 10.5649 26.5555 9.95755C30.1461 9.35025 33.8329 9.68902 37.2527 10.9405C40.6725 12.1919 43.7071 14.3129 46.0576 17.0943C48.4081 19.8757 49.9933 23.2216 50.6569 26.8022C51.3205 30.3828 51.0397 34.0745 49.8421 37.5135C48.6445 40.9525 46.5715 44.0201 43.8273 46.414C41.234 48.6763 38.126 50.2631 34.7793 51.0382C34.4565 51.113 34.1398 50.9019 34.0743 50.577L33.483 47.6446C33.4175 47.3198 33.6281 47.0044 33.9504 46.9273C36.5832 46.2977 39.0275 45.039 41.072 43.2555C43.2673 41.3404 44.9257 38.8863 45.8838 36.1351C46.8419 33.3839 47.0665 30.4305 46.5356 27.566C46.0047 24.7015 44.7366 22.0248 42.8562 19.7997C40.9758 17.5746 38.5481 15.8778 35.8122 14.8767C33.0764 13.8755 30.1269 13.6045 27.2545 14.0903C24.382 14.5762 21.6857 15.8021 19.4313 17.6473C17.3319 19.3657 15.6832 21.5659 14.6233 24.0568C14.4935 24.3617 14.1475 24.5168 13.8381 24.398L11.0453 23.326Z" fill="#FB923C"/>
<path d="M17.2392 46.442C17.0307 46.6995 17.07 47.0781 17.3333 47.2792C20.5257 49.7164 24.3517 51.1851 28.355 51.51C28.6852 51.5368 28.9677 51.2817 28.9851 50.9508L29.1417 47.9634C29.159 47.6325 28.9046 47.3513 28.5745 47.3221C25.4552 47.0465 22.475 45.9025 19.9724 44.0201C19.7076 43.8209 19.3304 43.8596 19.1218 44.1172L17.2392 46.442Z" fill="#FB923C"/>
<path d="M9.69321 30.6214C9.36184 30.6214 9.09232 30.8901 9.1018 31.2214C9.21674 35.2361 10.4832 39.1337 12.75 42.4493C12.937 42.7228 13.313 42.7818 13.5811 42.5871L16.0012 40.8287C16.2693 40.634 16.3278 40.2593 16.1427 39.9844C14.3939 37.3868 13.4074 34.3508 13.2954 31.2213C13.2836 30.8901 13.016 30.6214 12.6847 30.6214H9.69321Z" fill="#FB923C"/>
<g style="mix-blend-mode:multiply" filter="url(#filter0_f_580_17387)">
<path d="M29.8755 40.9022C34.4201 44.6468 40.1657 45.1803 42.7087 42.0939C45.2516 39.0075 43.6289 33.4699 39.0843 29.7254C34.5396 25.9809 28.794 25.4473 26.2511 28.5337C23.7081 31.6202 25.3308 37.1577 29.8755 40.9022Z" fill="url(#paint0_linear_580_17387)"/>
</g>
<circle cx="30" cy="30" r="7.5" fill="url(#paint1_radial_580_17387)"/>
<rect x="8.40039" y="14.4004" width="4.2" height="11.4" rx="0.6" fill="#FB923C"/>
<rect x="19.8008" y="21.5996" width="4.2" height="11.4" rx="0.6" transform="rotate(90 19.8008 21.5996)" fill="#FB923C"/>
<defs>
<filter id="filter0_f_580_17387" x="23.9783" y="25.4568" width="21.0024" height="19.7133" filterUnits="userSpaceOnUse" color-interpolation-filters="sRGB">
<feFlood flood-opacity="0" result="BackgroundImageFix"/>
<feBlend mode="normal" in="SourceGraphic" in2="BackgroundImageFix" result="shape"/>
<feGaussianBlur stdDeviation="0.535269" result="effect1_foregroundBlur_580_17387"/>
</filter>
<linearGradient id="paint0_linear_580_17387" x1="27.5632" y1="34.4811" x2="45.3904" y2="45.9552" gradientUnits="userSpaceOnUse">
<stop/>
<stop offset="1" stop-color="#1D1D21" stop-opacity="0"/>
</linearGradient>
<radialGradient id="paint1_radial_580_17387" cx="0" cy="0" r="1" gradientUnits="userSpaceOnUse" gradientTransform="translate(25.3424 26.153) rotate(17.7249) scale(18.8646)">
<stop offset="0.365346" stop-color="white"/>
<stop offset="0.64903" stop-color="#7D88ED"/>
<stop offset="0.748224" stop-color="white"/>
</radialGradient>
</defs>
</svg>
