<svg width="60" height="60" viewBox="0 0 60 60" fill="none" xmlns="http://www.w3.org/2000/svg">
<g clip-path="url(#clip0_537_5711)">
<g clip-path="url(#clip1_537_5711)">
<g style="mix-blend-mode:multiply" filter="url(#filter0_f_537_5711)">
<path d="M28.7223 51.7468C36.798 57.2327 47.2785 55.9461 52.1311 48.8732C56.9838 41.8002 54.371 31.6193 46.2953 26.1333C38.2196 20.6474 27.7391 21.934 22.8865 29.0069C18.0339 36.0799 20.6467 46.2608 28.7223 51.7468Z" fill="url(#paint0_linear_537_5711)"/>
</g>
<path fill-rule="evenodd" clip-rule="evenodd" d="M46.6259 36.4498C46.6259 37.0159 46.575 37.5487 46.5071 38.0815L50.0863 40.8288C50.4086 41.0785 50.4934 41.5281 50.2898 41.8944L46.8973 47.6553C46.6937 48.0216 46.2527 48.1714 45.8625 48.0216L41.6388 46.3566C40.7567 47.0059 39.8068 47.572 38.7721 47.9883L38.1275 52.4005C38.0766 52.8001 37.7204 53.0998 37.2963 53.0998H30.5111C30.0871 53.0998 29.7308 52.8001 29.68 52.4005L29.0354 47.9883C28.0006 47.572 27.0507 47.0226 26.1686 46.3566L21.9449 48.0216C21.5717 48.1548 21.1137 48.0216 20.9101 47.6553L17.5176 41.8944C17.314 41.5281 17.3988 41.0785 17.7211 40.8288L21.3003 38.0815C21.2324 37.5487 21.1816 36.9993 21.1816 36.4498C21.1816 35.9004 21.2324 35.3509 21.3003 34.8181L17.7211 32.0709C17.3988 31.8211 17.2971 31.3716 17.5176 31.0053L20.9101 25.2444C21.1137 24.8781 21.5547 24.7282 21.9449 24.8781L26.1686 26.5431C27.0507 25.8937 28.0006 25.3276 29.0354 24.9114L29.68 20.4991C29.7308 20.0995 30.0871 19.7998 30.5111 19.7998H37.2963C37.7204 19.7998 38.0766 20.0995 38.1275 20.4991L38.7721 24.9114C39.8068 25.3276 40.7567 25.8771 41.6388 26.5431L45.8625 24.8781C46.2357 24.7449 46.6937 24.8781 46.8973 25.2444L50.2898 31.0053C50.4934 31.3716 50.4086 31.8211 50.0863 32.0709L46.5071 34.8181C46.575 35.3509 46.6259 35.8837 46.6259 36.4498ZM27.9667 36.4498C27.9667 39.6633 30.6299 42.2773 33.9037 42.2773C37.1775 42.2773 39.8407 39.6633 39.8407 36.4498C39.8407 33.2364 37.1775 30.6223 33.9037 30.6223C30.6299 30.6223 27.9667 33.2364 27.9667 36.4498Z" fill="url(#paint1_radial_537_5711)"/>
<path fill-rule="evenodd" clip-rule="evenodd" d="M26.4951 17.7822C26.3781 18.0341 26.2452 18.2606 26.1047 18.4835L27.1408 20.4508C27.2337 20.629 27.1788 20.8467 27.0119 20.9673L24.3012 22.8249C24.1343 22.9455 23.9057 22.9204 23.7618 22.7726L22.2132 21.1527C21.6838 21.2581 21.1411 21.3124 20.5915 21.2823L19.3908 23.1115C19.2855 23.2787 19.0639 23.338 18.8739 23.2497L15.8335 21.8378C15.6434 21.7495 15.5457 21.5421 15.6055 21.3536L16.2284 19.2561C15.8508 18.8556 15.5387 18.4134 15.281 17.9335L13.0443 17.7955C12.8496 17.7771 12.6718 17.6225 12.6563 17.4172L12.3266 14.1477C12.3111 13.9423 12.442 13.7599 12.638 13.7159L14.8095 13.2382C14.8892 12.987 14.98 12.7319 15.0935 12.4874C15.207 12.2429 15.3434 12.009 15.4839 11.786L14.4478 9.81875C14.355 9.64055 14.4022 9.41933 14.5768 9.30222L17.2874 7.44468C17.4543 7.32404 17.6829 7.34914 17.8268 7.497L19.3754 9.11683C19.9048 9.01143 20.4475 8.9572 20.9972 8.9873L22.1978 7.15805C22.3031 6.99083 22.5247 6.93159 22.7147 7.01984L25.7552 8.43178C25.9452 8.52002 26.0429 8.72751 25.9831 8.91592L25.3602 11.0134C25.7378 11.414 26.0499 11.8561 26.3076 12.3361L28.5443 12.4741C28.7391 12.4925 28.9168 12.647 28.9323 12.8524L29.262 16.1219C29.2775 16.3272 29.1466 16.5096 28.9506 16.5537L26.7791 17.0314C26.6994 17.2826 26.6121 17.5303 26.4951 17.7822ZM18.1339 13.8993C17.4699 15.3293 18.1231 17.0467 19.5901 17.7279C21.0571 18.4092 22.7906 17.8002 23.4547 16.3702C24.1187 14.9403 23.4655 13.2229 21.9985 12.5416C20.5315 11.8604 18.798 12.4694 18.1339 13.8993Z" fill="#FB923C"/>
</g>
</g>
<defs>
<filter id="filter0_f_537_5711" x="10.4471" y="12.7319" width="54.1235" height="52.416" filterUnits="userSpaceOnUse" color-interpolation-filters="sRGB">
<feFlood flood-opacity="0" result="BackgroundImageFix"/>
<feBlend mode="normal" in="SourceGraphic" in2="BackgroundImageFix" result="shape"/>
<feGaussianBlur stdDeviation="5" result="effect1_foregroundBlur_537_5711"/>
</filter>
<linearGradient id="paint0_linear_537_5711" x1="17.4358" y1="32.4881" x2="52.1119" y2="52.7564" gradientUnits="userSpaceOnUse">
<stop/>
<stop offset="1" stop-color="#1D1D21" stop-opacity="0"/>
</linearGradient>
<radialGradient id="paint1_radial_537_5711" cx="0" cy="0" r="1" gradientUnits="userSpaceOnUse" gradientTransform="translate(23.6532 27.9094) rotate(17.8759) scale(41.5371 41.8439)">
<stop offset="0.365346" stop-color="white"/>
<stop offset="0.64903" stop-color="#7D88ED"/>
<stop offset="0.748224" stop-color="white"/>
</radialGradient>
<clipPath id="clip0_537_5711">
<rect width="60" height="60" fill="white"/>
</clipPath>
<clipPath id="clip1_537_5711">
<rect width="60" height="60" fill="white"/>
</clipPath>
</defs>
</svg>
