<svg width="24" height="26" viewBox="0 0 24 26" fill="none" xmlns="http://www.w3.org/2000/svg">
<path fill-rule="evenodd" clip-rule="evenodd" d="M6.98826 24.495C6.79343 24.4706 6.59794 24.4233 6.3908 24.3501C6.01427 24.2172 5.70001 24.0384 5.46836 23.8975C4.95807 23.5873 4.43921 23.1981 3.88232 22.7082C3.63916 22.4941 3.40229 22.2694 3.17787 22.0399L2.98506 21.8434C2.85076 21.716 2.73601 21.5732 2.64187 21.4194C2.4658 21.138 2.32507 20.7623 2.30378 20.2704C2.29092 20.1102 2.28356 19.9489 2.28195 19.7882C2.27834 19.4379 2.30083 19.0765 2.3489 18.7137C2.44705 17.9728 2.66397 17.3068 2.84205 16.8094C2.85665 16.7685 2.87151 16.7276 2.88664 16.6866C2.83697 16.5506 2.78983 16.4137 2.74565 16.2765C2.49003 15.4831 2.32239 14.6568 2.24714 13.8205C2.168 12.9397 2.1905 12.0498 2.31409 11.1763C2.34006 10.9925 2.37086 10.8085 2.40594 10.6254C2.08632 10.1296 1.68101 9.4239 1.42928 8.5827L1.42446 8.56706C1.36996 8.38783 1.24222 7.96838 1.31292 7.4192C1.33916 7.21658 1.38496 7.01424 1.45325 6.79971C1.57965 6.40236 1.74555 6.07087 1.87583 5.82649C2.16573 5.28334 2.52645 4.73258 2.9789 4.1428C3.17774 3.88364 3.38542 3.63222 3.59658 3.3953L3.78096 3.18752C3.87697 3.072 3.98275 2.96939 4.09656 2.88085C4.36664 2.66474 4.74102 2.48365 5.2477 2.45853C5.4136 2.44318 5.58352 2.43514 5.75357 2.43471H5.76656C6.10653 2.43471 6.45788 2.46499 6.81098 2.52469C7.34082 2.61437 7.82647 2.77481 8.25669 2.94471C8.5435 2.81298 8.83822 2.69473 9.13467 2.59285C9.87554 2.33785 10.6459 2.17641 11.4245 2.11298C12.2399 2.0464 13.07 2.08758 13.8718 2.23438C14.0583 2.26854 14.2452 2.30872 14.4309 2.35464C15.0615 1.89099 15.6421 1.57227 16.2398 1.36032L16.253 1.35544C16.3931 1.30321 16.6846 1.19458 17.0708 1.19458C17.1543 1.19458 17.2387 1.19975 17.3213 1.21008C17.5163 1.23447 17.7118 1.28183 17.9188 1.35487C18.2956 1.4879 18.6097 1.6667 18.8413 1.80776C19.3518 2.11801 19.8706 2.50718 20.4274 2.99709C20.6704 3.21091 20.9074 3.43577 21.132 3.66537L21.3245 3.86154C21.4205 3.95266 21.5065 4.05153 21.5821 4.15672C21.8249 4.48706 22.0144 4.95645 22.0181 5.61798C22.0307 5.85361 22.0312 6.09412 22.0198 6.33491C21.9951 6.86156 21.9209 7.36338 21.7994 7.82631C21.7101 8.16641 21.6035 8.51153 21.4818 8.85507C21.7187 9.4968 21.8972 10.1619 22.0139 10.8385C22.2584 12.2556 22.2311 13.7213 21.9384 15.1263C22.118 15.4056 22.2704 15.664 22.4028 15.9141C22.633 16.3488 22.8156 16.7967 22.9455 17.2451C22.9937 17.4116 23.121 17.8515 23.0371 18.4149C23.0079 18.6107 22.96 18.8083 22.8907 19.0179C22.6488 19.7506 22.2721 20.3476 21.938 20.8496C21.5703 21.4019 21.1653 21.9265 20.7336 22.4091L20.5775 22.5851C20.4803 22.7026 20.3727 22.8062 20.2572 22.8956C19.9876 23.1097 19.6146 23.2889 19.1111 23.3142C18.9451 23.3297 18.775 23.3374 18.605 23.338H18.5916C18.2341 23.338 17.864 23.3044 17.4919 23.2383C16.8958 23.1324 16.3515 22.9361 15.8781 22.7375C15.6208 22.8471 15.3586 22.9457 15.0954 23.0316C14.3418 23.2773 13.5601 23.4267 12.7718 23.4755C11.9527 23.5266 11.1215 23.4682 10.3187 23.304C10.2214 23.284 10.1241 23.2625 10.027 23.2394C9.33217 23.7661 8.70834 24.1182 8.06963 24.3448L8.05651 24.3495C7.91645 24.4019 7.62495 24.5104 7.23879 24.5104C7.15523 24.5104 7.07088 24.5052 6.98826 24.495Z" stroke="#F4F4F5"/>
<path fill-rule="evenodd" clip-rule="evenodd" d="M9.22924 9.73278C8.75778 9.50447 8.41727 9.27444 8.06324 9.00351C7.52255 8.60745 7.03007 8.15685 6.6127 7.68976C5.59721 6.57993 5.13359 5.41838 5.28128 4.49194L4.9099 4.86108C4.17144 5.69381 3.19143 7.15005 3.18286 7.78361L3.20094 7.85048C3.33203 8.33508 3.55497 8.82227 3.86307 9.29854L3.86816 9.30629C4.26557 9.99754 5.05933 11.1254 7.87083 12.4477L7.37366 13.4489L11.168 12.3565L9.80112 8.59051L9.22924 9.73278Z" fill="#F4F4F5"/>
<path fill-rule="evenodd" clip-rule="evenodd" d="M15.129 16.0396C15.6006 16.2679 15.941 16.4979 16.295 16.7688C16.8359 17.1649 17.3282 17.6154 17.7456 18.0826C18.7612 19.1923 19.1784 20.2422 19.0307 21.1684L19.4485 20.9113C20.187 20.0785 21.1668 18.6223 21.1755 17.9887L21.1573 17.9219C21.0263 17.4373 20.8034 16.9499 20.4952 16.4737L20.4901 16.4661C20.0928 15.7748 19.2989 14.6469 16.4875 13.3247L16.9846 12.3235L13.1903 13.4158L14.5573 17.1818L15.129 16.0396Z" fill="#F4F4F5"/>
<path fill-rule="evenodd" clip-rule="evenodd" d="M15.218 9.70161C15.4309 9.1962 15.6456 8.83142 15.8984 8.45201C16.2679 7.87255 16.6884 7.34476 17.1242 6.89747C18.1599 5.80902 19.2366 5.30432 20.101 5.4626L19.7636 5.07243C18.9867 4.28102 17.6279 3.23089 17.0368 3.22156L16.9743 3.24107C16.522 3.38156 16.0675 3.62035 15.6231 3.95068L15.6159 3.95614C14.9709 4.38205 13.9185 5.23272 12.6847 8.2458L11.7505 7.71298L12.7697 11.7794L16.2838 10.3144L15.218 9.70161Z" fill="#F4F4F5"/>
<path fill-rule="evenodd" clip-rule="evenodd" d="M9.0914 16.003C8.87836 16.5084 8.66372 16.8732 8.41092 17.2525C8.04136 17.8321 7.62091 18.3599 7.1852 18.8072C6.14949 19.8956 5.07539 20.3561 4.21094 20.1978L4.54577 20.6322C5.32266 21.4235 6.68147 22.4738 7.2725 22.4829L7.33504 22.4636C7.78735 22.3231 8.24181 22.0843 8.68622 21.7538L8.69345 21.7485C9.33844 21.3226 10.3909 20.4719 11.6248 17.4589L12.5589 17.9917L11.5396 13.9253L8.02556 15.3901L9.0914 16.003Z" fill="#F4F4F5"/>
</svg>
