<svg width="22" height="22" viewBox="0 0 22 22" fill="none" xmlns="http://www.w3.org/2000/svg">
<path fill-rule="evenodd" clip-rule="evenodd" d="M6.34788 20.6841C6.17389 20.6638 5.99929 20.6244 5.8143 20.5634C5.47803 20.4526 5.19737 20.3036 4.99049 20.1862C4.53475 19.9277 4.07136 19.6033 3.57402 19.1951C3.35685 19.0167 3.14531 18.8294 2.94489 18.6382L2.77269 18.4745C2.65274 18.3683 2.55026 18.2493 2.46619 18.1211C2.30894 17.8866 2.18326 17.5735 2.16424 17.1636C2.15276 17.0301 2.14619 16.8957 2.14475 16.7618C2.14152 16.4699 2.16161 16.1687 2.20454 15.8664C2.2922 15.2489 2.48592 14.694 2.64497 14.2795C2.658 14.2454 2.67128 14.2113 2.68479 14.1771C2.64043 14.0637 2.59833 13.9497 2.55887 13.8353C2.33058 13.1742 2.18087 12.4856 2.11366 11.7887C2.04298 11.0547 2.06308 10.3131 2.17345 9.58522C2.19665 9.43203 2.22415 9.27872 2.25549 9.12613C1.97004 8.71297 1.60806 8.12486 1.38324 7.42386L1.37894 7.41082C1.33027 7.26146 1.21618 6.91192 1.27932 6.45427C1.30276 6.28542 1.34366 6.11681 1.40465 5.93803C1.51753 5.6069 1.6657 5.33067 1.78205 5.12701C2.04095 4.67439 2.36311 4.21543 2.76718 3.72394C2.94477 3.50797 3.13024 3.29846 3.31882 3.10103L3.48349 2.92787C3.56923 2.8316 3.6637 2.7461 3.76535 2.67232C4.00655 2.49223 4.34091 2.34131 4.79341 2.32038C4.94158 2.30759 5.09333 2.30089 5.2452 2.30053H5.2568C5.56042 2.30053 5.87421 2.32576 6.18955 2.37551C6.66274 2.45025 7.09648 2.58395 7.4807 2.72553C7.73685 2.61576 8.00005 2.51722 8.26481 2.43231C8.92647 2.21981 9.61443 2.08528 10.3098 2.03243C11.0381 1.97694 11.7794 2.01126 12.4954 2.13359C12.662 2.16205 12.829 2.19554 12.9948 2.2338C13.5579 1.84743 14.0765 1.58183 14.6103 1.40521L14.6221 1.40114C14.7472 1.35761 15.0075 1.26709 15.3524 1.26709C15.427 1.26709 15.5024 1.27139 15.5762 1.28C15.7503 1.30033 15.9249 1.3398 16.1097 1.40066C16.4463 1.51152 16.7268 1.66052 16.9337 1.77807C17.3895 2.03661 17.8529 2.36092 18.3501 2.76918C18.5672 2.94736 18.7789 3.13475 18.9794 3.32608L19.1514 3.48955C19.2371 3.56549 19.3139 3.64788 19.3814 3.73554C19.5982 4.01082 19.7675 4.40198 19.7708 4.95326C19.782 5.14962 19.7825 5.35004 19.7724 5.5507C19.7502 5.98957 19.684 6.40776 19.5755 6.79353C19.4958 7.07695 19.4006 7.36455 19.2919 7.65083C19.5034 8.18561 19.6628 8.73988 19.7671 9.30372C19.9855 10.4846 19.9611 11.706 19.6996 12.8769C19.86 13.1096 19.9961 13.325 20.1144 13.5334C20.3199 13.8956 20.483 14.2688 20.599 14.6425C20.6421 14.7812 20.7558 15.1479 20.6808 15.6174C20.6548 15.7805 20.612 15.9452 20.5501 16.1199C20.334 16.7305 19.9977 17.2279 19.6993 17.6462C19.3709 18.1065 19.0092 18.5437 18.6236 18.9459L18.4842 19.0925C18.3974 19.1904 18.3014 19.2768 18.1982 19.3513C17.9574 19.5297 17.6243 19.679 17.1746 19.7001C17.0264 19.713 16.8745 19.7195 16.7226 19.7199H16.7107C16.3914 19.7199 16.0608 19.692 15.7285 19.6368C15.1961 19.5486 14.71 19.385 14.2873 19.2195C14.0574 19.3108 13.8233 19.393 13.5882 19.4646C12.9152 19.6694 12.2171 19.7938 11.5131 19.8345C10.7816 19.8771 10.0392 19.8284 9.32229 19.6916C9.23535 19.675 9.14841 19.657 9.06171 19.6378C8.44119 20.0767 7.88405 20.3701 7.31364 20.5589L7.30192 20.5629C7.17684 20.6065 6.9165 20.6969 6.57162 20.6969C6.497 20.6969 6.42166 20.6926 6.34788 20.6841Z" stroke="#F4F4F5"/>
<path fill-rule="evenodd" clip-rule="evenodd" d="M8.34963 8.38201C7.92858 8.19175 7.62448 8.00006 7.3083 7.77428C6.82542 7.44423 6.38559 7.06874 6.01285 6.6795C5.10592 5.75463 4.69187 4.78668 4.82377 4.01465L4.4921 4.32226C3.83259 5.0162 2.95736 6.22974 2.94971 6.7577L2.96585 6.81343C3.08292 7.21726 3.28203 7.62325 3.55719 8.02015L3.56174 8.02661C3.91666 8.60264 4.62555 9.54257 7.13646 10.6444L6.69244 11.4788L10.0811 10.5685L8.86037 7.43012L8.34963 8.38201Z" fill="#F4F4F5"/>
<path fill-rule="evenodd" clip-rule="evenodd" d="M13.6187 13.6378C14.0398 13.828 14.3438 14.0197 14.66 14.2455C15.143 14.5755 15.5827 14.9509 15.9554 15.3403C16.8625 16.265 17.235 17.14 17.1031 17.9118L17.4763 17.6975C18.1358 17.0036 19.0109 15.79 19.0187 15.2621L19.0024 15.2063C18.8854 14.8025 18.6864 14.3964 18.4111 13.9995L18.4066 13.9932C18.0517 13.4171 17.3427 12.4772 14.8318 11.3754L15.2759 10.541L11.8872 11.4513L13.108 14.5896L13.6187 13.6378Z" fill="#F4F4F5"/>
<path fill-rule="evenodd" clip-rule="evenodd" d="M13.6978 8.3561C13.888 7.93493 14.0798 7.63094 14.3055 7.31476C14.6355 6.83188 15.0111 6.39206 15.4002 6.01931C16.3252 5.11227 17.2868 4.69169 18.0588 4.82359L17.7574 4.49845C17.0636 3.83894 15.8501 2.96383 15.3222 2.95605L15.2664 2.97232C14.8624 3.08939 14.4566 3.28838 14.0597 3.56366L14.0532 3.5682C13.4772 3.92313 12.5373 4.63202 11.4354 7.14292L10.6011 6.69891L11.5113 10.0876L14.6497 8.86672L13.6978 8.3561Z" fill="#F4F4F5"/>
<path fill-rule="evenodd" clip-rule="evenodd" d="M8.22634 13.6074C8.03608 14.0286 7.84439 14.3326 7.61862 14.6486C7.28856 15.1316 6.91307 15.5715 6.52395 15.9442C5.59897 16.8513 4.63971 17.235 3.86768 17.1031L4.16671 17.4651C4.86054 18.1245 6.07407 18.9997 6.60191 19.0074L6.65776 18.9912C7.06171 18.8741 7.46758 18.6752 7.86448 18.3997L7.87094 18.3953C8.44697 18.0404 9.3869 17.3315 10.4889 14.8206L11.3231 15.2646L10.4128 11.876L7.27445 13.0967L8.22634 13.6074Z" fill="#F4F4F5"/>
</svg>
