<svg width="1624" height="437" viewBox="0 0 1624 437" fill="none" xmlns="http://www.w3.org/2000/svg">
    <path fill-rule="evenodd" clip-rule="evenodd" d="M141.393 396.698C138.199 396.325 134.994 395.6 131.597 394.479C125.424 392.445 120.271 389.708 116.473 387.551C108.107 382.801 99.5994 376.843 90.4687 369.344C86.4818 366.066 82.5982 362.626 78.9187 359.113L75.7573 356.106C73.5553 354.155 71.6739 351.969 70.1305 349.614C67.2435 345.306 64.9362 339.555 64.5871 332.024C64.3763 329.573 64.2556 327.104 64.2292 324.643C64.17 319.281 64.5388 313.747 65.3269 308.194C66.9362 296.852 70.4927 286.656 73.4126 279.042C73.6519 278.416 73.8956 277.79 74.1437 277.162C73.3292 275.079 72.5564 272.983 71.8319 270.883C67.6409 258.737 64.8923 246.088 63.6584 233.285C62.361 219.801 62.7298 206.179 64.7561 192.807C65.1821 189.993 65.687 187.177 66.2622 184.373C61.0218 176.783 54.3763 165.98 50.2489 153.102L50.1699 152.863C49.2764 150.119 47.1819 143.698 48.3411 135.29C48.7714 132.189 49.5222 129.091 50.6419 125.807C52.7144 119.724 55.4345 114.649 57.5706 110.908C62.3236 102.593 68.2381 94.162 75.6563 85.1332C78.9165 81.1658 82.3216 77.317 85.7837 73.6901L88.8068 70.5091C90.3809 68.7407 92.1152 67.17 93.9813 65.8145C98.4095 62.5062 104.548 59.7338 112.855 59.3494C115.575 59.1143 118.361 58.9913 121.149 58.9847H121.362C126.937 58.9847 132.697 59.4482 138.487 60.3621C147.174 61.7351 155.136 64.1911 162.19 66.7921C166.893 64.7755 171.725 62.9653 176.586 61.4056C188.733 57.5019 201.363 55.0305 214.129 54.0595C227.499 53.0402 241.108 53.6707 254.254 55.918C257.313 56.4408 260.377 57.0559 263.422 57.7589C273.761 50.661 283.28 45.782 293.08 42.5373L293.298 42.4626C295.594 41.663 300.373 40 306.705 40C308.075 40 309.458 40.0791 310.812 40.2373C314.009 40.6107 317.214 41.3357 320.608 42.4538C326.786 44.4903 331.937 47.2275 335.735 49.3869C344.104 54.1364 352.611 60.0941 361.739 67.5939C365.724 70.8672 369.61 74.3096 373.291 77.8244L376.448 80.8274C378.022 82.2224 379.432 83.736 380.672 85.3463C384.653 90.4033 387.759 97.589 387.821 107.716C388.027 111.323 388.036 115.005 387.849 118.691C387.443 126.754 386.227 134.436 384.235 141.523C382.771 146.729 381.024 152.012 379.028 157.272C382.912 167.096 385.838 177.278 387.753 187.636C391.761 209.329 391.313 231.767 386.514 253.276C389.458 257.551 391.957 261.507 394.128 265.336C397.902 271.99 400.896 278.847 403.026 285.712C403.816 288.26 405.904 294.995 404.528 303.62C404.049 306.616 403.263 309.641 402.128 312.851C398.161 324.068 391.985 333.206 386.508 340.891C380.479 349.346 373.838 357.378 366.76 364.765L364.2 367.459C362.606 369.258 360.843 370.844 358.949 372.213C354.53 375.49 348.413 378.234 340.158 378.621C337.436 378.858 334.648 378.977 331.86 378.985H331.64C325.778 378.985 319.71 378.471 313.609 377.459C303.835 375.837 294.911 372.832 287.15 369.792C282.931 371.47 278.632 372.979 274.316 374.295C261.96 378.056 249.144 380.343 236.219 381.09C222.79 381.872 209.161 380.978 195.999 378.465C194.403 378.159 192.807 377.83 191.216 377.476C179.824 385.538 169.595 390.929 159.123 394.398L158.908 394.471C156.612 395.272 151.832 396.933 145.501 396.933C144.131 396.933 142.748 396.854 141.393 396.698Z" fill="#231F20"/>
    <path fill-rule="evenodd" clip-rule="evenodd" d="M171.702 234.086L173.3 296.203L157.86 283.584C140.63 311.448 135.344 338.583 143.379 358.447L146.263 365.58L139.227 362.482C123.133 355.408 108.781 345.463 96.5749 332.933L95.8329 332.166L95.7099 331.107C94.8274 323.434 95.317 315.139 97.1633 306.462L97.194 306.323C99.9888 295.642 104.158 284.748 109.587 273.949C112.983 267.196 116.915 260.399 121.3 253.703L107.861 242.722L171.702 234.086Z" fill="#B27733"/>
    <path fill-rule="evenodd" clip-rule="evenodd" d="M280.508 202.849L278.91 140.732L294.348 153.349C311.58 125.487 316.866 98.3497 308.831 78.4863L305.947 71.3555L312.983 74.453C329.077 81.5266 343.429 91.4693 355.635 104L356.379 104.767L356.502 105.825C357.385 113.501 356.895 121.794 355.047 130.471L355.018 130.612C352.221 141.293 348.052 152.187 342.623 162.986C339.227 169.739 335.295 176.536 330.91 183.229L344.348 194.213L280.508 202.849Z" fill="#B27733"/>
    <path fill-rule="evenodd" clip-rule="evenodd" d="M242.275 271.443L304.353 269.844L291.742 285.289C319.589 302.532 346.706 307.822 366.559 299.782L373.686 296.897L370.59 303.938C363.519 320.038 353.582 334.399 341.062 346.615L340.294 347.358L339.235 347.481C331.567 348.364 323.279 347.874 314.605 346.029L314.465 345.998C303.793 343.199 292.904 339.03 282.113 333.597C275.364 330.199 268.572 326.262 261.88 321.875L250.903 335.321L242.275 271.443Z" fill="#B27733"/>
    <path fill-rule="evenodd" clip-rule="evenodd" d="M210.733 166.53L148.656 168.129L161.264 152.681C133.419 135.439 106.302 130.149 86.4488 138.189L79.3247 141.076L82.418 134.035C89.4872 117.932 99.4258 103.572 111.946 91.3556L112.712 90.6131L113.771 90.4901C121.441 89.607 129.729 90.0968 138.403 91.9422L138.543 91.9751C149.218 94.7716 160.105 98.9433 170.895 104.376C177.644 107.772 184.436 111.709 191.128 116.096L202.105 102.649L210.733 166.53Z" fill="#B27733"/>
    <path fill-rule="evenodd" clip-rule="evenodd" d="M359.418 217.476C359.418 290.829 299.993 350.29 226.688 350.29C153.382 350.29 93.9565 290.829 93.9565 217.476C93.9565 144.125 153.382 84.6621 226.688 84.6621C299.993 84.6621 359.418 144.125 359.418 217.476" fill="#D98F40"/>
    <path fill-rule="evenodd" clip-rule="evenodd" d="M178.137 170.716C170.407 167.221 164.824 163.699 159.019 159.552C150.154 153.489 142.08 146.591 135.237 139.44C118.587 122.45 109.871 105.08 112.293 90.8975L107.318 96.1368C95.2101 108.885 79.142 131.178 79.0015 140.877L79.2978 141.9C81.4471 149.319 85.1025 156.777 90.1541 164.068L90.2375 164.187C96.7535 174.769 109.768 192.036 155.865 212.277L147.713 227.604L209.924 210.882L187.514 153.229L178.137 170.716Z" fill="#FEFEFE"/>
    <path fill-rule="evenodd" clip-rule="evenodd" d="M274.869 267.259C282.601 270.754 288.182 274.276 293.986 278.423C302.854 284.487 310.926 291.382 317.769 298.535C334.421 315.523 343.135 332.897 340.713 347.075L345.69 341.838C357.798 329.09 373.864 306.797 374.007 297.098L373.708 296.075C371.559 288.656 367.906 281.196 362.852 273.905L362.768 273.788C356.255 263.206 343.238 245.939 297.141 225.698L305.293 210.371L243.082 227.093L265.494 284.746L274.869 267.259Z" fill="#FEFEFE"/>
    <path fill-rule="evenodd" clip-rule="evenodd" d="M276.328 170.228C279.818 162.491 283.34 156.907 287.485 151.098C293.542 142.228 300.438 134.148 307.581 127.3C324.563 110.638 341.922 101.919 356.095 104.342L350.857 99.3616C338.12 87.2463 315.841 71.1701 306.15 71.0273L305.125 71.3261C297.709 73.4768 290.258 77.1322 282.971 82.1893L282.852 82.2727C272.277 88.7928 255.021 101.815 234.793 147.942L219.476 139.785L236.187 202.035L293.803 179.608L276.328 170.228Z" fill="#FEFEFE"/>
    <path fill-rule="evenodd" clip-rule="evenodd" d="M175.878 266.705C172.385 274.442 168.866 280.026 164.721 285.832C158.662 294.705 151.768 302.785 144.624 309.632C127.643 326.295 110.286 335.014 96.1123 332.591L101.348 337.571C114.086 349.684 136.365 365.763 146.056 365.903L147.081 365.607C154.497 363.456 161.948 359.801 169.235 354.741L169.353 354.66C179.928 348.14 197.184 335.117 217.415 288.991L232.73 297.148L216.019 234.897L158.402 257.322L175.878 266.705Z" fill="#FEFEFE"/>
    <path fill-rule="evenodd" clip-rule="evenodd" d="M483.949 328.489H470.86V110.178H489.56L555.012 294.493V110.178H568.103V328.489H552.206L483.949 133.879V328.489Z" fill="#FEFEFE"/>
    <path fill-rule="evenodd" clip-rule="evenodd" d="M665.034 211.226V224.325H605.503V315.391H677.189V328.491H591.167V110.178H677.189V123.277H605.503V211.226H665.034Z" fill="#FEFEFE"/>
    <path fill-rule="evenodd" clip-rule="evenodd" d="M754.48 226.819L710.221 328.489H696.196L745.441 215.279L699.626 110.178H714.585L755.725 204.051L797.178 110.178H810.893L765.077 215.279L814.01 328.489H798.737L754.48 226.819Z" fill="#FEFEFE"/>
    <path fill-rule="evenodd" clip-rule="evenodd" d="M848.291 275.783C848.291 299.172 857.02 317.261 881.016 317.261C905.016 317.261 913.743 299.172 913.743 275.783V110.178H927.145V275.159C927.145 306.345 914.054 330.36 880.706 330.36C847.356 330.36 833.955 306.345 833.955 275.159V110.178H848.291V275.783Z" fill="#FEFEFE"/>
    <path fill-rule="evenodd" clip-rule="evenodd" d="M1042.15 162.89V167.567H1028.44V161.954C1028.44 138.875 1019.71 121.41 996.022 121.41C972.335 121.41 963.609 138.563 963.609 161.642C963.609 214.66 1042.46 215.595 1042.46 275.79C1042.46 307.285 1028.75 330.365 995.398 330.365C962.05 330.365 948.337 307.285 948.337 275.79V264.56H962.05V276.723C962.05 300.115 971.088 316.956 995.088 316.956C1019.09 316.956 1028.12 300.115 1028.12 276.723C1028.12 224.33 949.27 223.394 949.27 162.578C949.27 129.83 963.609 108.622 995.712 108.311C1028.75 108.311 1042.15 131.39 1042.15 162.89" fill="#FEFEFE"/>
    <path fill-rule="evenodd" clip-rule="evenodd" d="M1136.58 265.179L1159.96 110.178H1207.65V328.489H1175.23V171.93L1151.54 328.489H1119.13L1093.57 174.111V328.489H1063.65V110.178H1111.34L1136.58 265.179Z" fill="#D98F40"/>
    <path fill-rule="evenodd" clip-rule="evenodd" d="M1262.49 278.285C1262.49 293.878 1269.35 299.805 1280.26 299.805C1291.17 299.805 1298.03 293.878 1298.03 278.285V160.396C1298.03 144.801 1291.17 138.876 1280.26 138.876C1269.35 138.876 1262.49 144.801 1262.49 160.396V278.285ZM1228.21 162.577C1228.21 127.646 1246.6 107.686 1280.26 107.686C1313.92 107.686 1332.31 127.646 1332.31 162.577V276.098C1332.31 311.028 1313.92 330.988 1280.26 330.988C1246.6 330.988 1228.21 311.028 1228.21 276.098V162.577Z" fill="#D98F40"/>
    <path fill-rule="evenodd" clip-rule="evenodd" d="M1387.16 141.369V297.304H1406.49C1417.39 297.304 1423.94 291.693 1423.94 276.098V162.576C1423.94 146.984 1417.39 141.369 1406.49 141.369H1387.16ZM1352.88 110.178H1407.11C1441.4 110.178 1458.23 129.202 1458.23 164.133V274.535C1458.23 309.467 1441.4 328.491 1407.11 328.491H1352.88V110.178Z" fill="#D98F40"/>
    <path fill-rule="evenodd" clip-rule="evenodd" d="M1524.61 107.686C1557.96 107.686 1575.1 127.646 1575.1 162.575V169.437H1542.68V160.393C1542.68 144.798 1536.45 138.873 1525.54 138.873C1514.63 138.873 1508.4 144.798 1508.4 160.393C1508.4 205.302 1575.41 213.723 1575.41 276.098C1575.41 311.028 1557.96 330.988 1524.3 330.988C1490.64 330.988 1473.18 311.028 1473.18 276.098V262.687H1505.6V278.282C1505.6 293.873 1512.45 299.488 1523.36 299.488C1534.27 299.488 1541.13 293.873 1541.13 278.282C1541.13 233.371 1474.12 224.95 1474.12 162.575C1474.12 127.646 1491.26 107.686 1524.61 107.686" fill="#D98F40"/>
</svg>
