<svg width="357" height="357" viewBox="0 0 357 357" fill="none" xmlns="http://www.w3.org/2000/svg">
    <path fill-rule="evenodd" clip-rule="evenodd" d="M93.3932 356.698C90.1989 356.325 86.9936 355.6 83.5974 354.479C77.4239 352.445 72.2713 349.708 68.4732 347.551C60.1066 342.801 51.5994 336.843 42.4687 329.344C38.4818 326.066 34.5982 322.626 30.9187 319.113L27.7573 316.106C25.5553 314.155 23.6739 311.969 22.1305 309.614C19.2435 305.306 16.9362 299.555 16.5871 292.024C16.3763 289.573 16.2556 287.104 16.2292 284.643C16.17 279.281 16.5388 273.747 17.3269 268.194C18.9362 256.852 22.4927 246.656 25.4126 239.042C25.6519 238.416 25.8956 237.79 26.1437 237.162C25.3292 235.079 24.5564 232.983 23.8319 230.883C19.6409 218.737 16.8923 206.088 15.6584 193.285C14.361 179.801 14.7298 166.179 16.7561 152.807C17.1821 149.993 17.687 147.177 18.2622 144.373C13.0218 136.783 6.37628 125.98 2.24892 113.102L2.16989 112.863C1.27636 110.119 -0.818052 103.698 0.34112 95.2904C0.771419 92.1885 1.52225 89.091 2.6419 85.8068C4.71436 79.7239 7.43447 74.6493 9.57059 70.9082C14.3236 62.5933 20.2381 54.162 27.6563 45.1332C30.9165 41.1658 34.3216 37.317 37.7837 33.6901L40.8068 30.5091C42.3809 28.7407 44.1152 27.17 45.9813 25.8145C50.4095 22.5062 56.5478 19.7338 64.8552 19.3494C67.5753 19.1143 70.3613 18.9913 73.1494 18.9847H73.3624C78.9365 18.9847 84.6973 19.4482 90.4865 20.3621C99.1737 21.7351 107.136 24.1911 114.19 26.7921C118.893 24.7755 123.725 22.9653 128.586 21.4056C140.733 17.5019 153.363 15.0305 166.129 14.0595C179.499 13.0402 193.108 13.6707 206.254 15.918C209.313 16.4408 212.377 17.0559 215.422 17.7589C225.761 10.661 235.28 5.78197 245.08 2.5373L245.298 2.46261C247.594 1.66297 252.373 0 258.705 0C260.075 0 261.458 0.0790846 262.812 0.237254C266.009 0.610709 269.214 1.33565 272.608 2.45382C278.786 4.49025 283.937 7.22746 287.735 9.38691C296.104 14.1364 304.611 20.0941 313.739 27.5939C317.724 30.8672 321.61 34.3096 325.291 37.8244L328.448 40.8274C330.022 42.2224 331.432 43.736 332.672 45.3463C336.653 50.4033 339.759 57.589 339.821 67.7162C340.027 71.3234 340.036 75.0052 339.849 78.6914C339.443 86.7536 338.227 94.4358 336.235 101.523C334.771 106.729 333.024 112.012 331.028 117.272C334.912 127.096 337.838 137.278 339.753 147.636C343.761 169.329 343.313 191.767 338.514 213.276C341.458 217.551 343.957 221.507 346.128 225.336C349.902 231.99 352.896 238.847 355.026 245.712C355.816 248.26 357.904 254.995 356.528 263.62C356.049 266.616 355.263 269.641 354.128 272.851C350.161 284.068 343.985 293.206 338.508 300.891C332.479 309.346 325.838 317.378 318.76 324.765L316.2 327.459C314.606 329.258 312.843 330.844 310.949 332.213C306.53 335.49 300.413 338.234 292.158 338.621C289.436 338.858 286.648 338.977 283.86 338.985H283.64C277.778 338.985 271.71 338.471 265.609 337.459C255.835 335.837 246.911 332.832 239.15 329.792C234.931 331.47 230.632 332.979 226.316 334.295C213.96 338.056 201.144 340.343 188.219 341.09C174.79 341.872 161.161 340.978 147.999 338.465C146.403 338.159 144.807 337.83 143.216 337.476C131.824 345.538 121.595 350.929 111.123 354.398L110.908 354.471C108.612 355.272 103.832 356.933 97.5008 356.933C96.1309 356.933 94.7478 356.854 93.3932 356.698Z" fill="#231F20"/>
    <path fill-rule="evenodd" clip-rule="evenodd" d="M123.701 194.086L125.299 256.203L109.859 243.584C92.6296 271.448 87.3431 298.583 95.3782 318.447L98.263 325.58L91.2267 322.482C75.1322 315.408 60.7809 305.463 48.5744 292.933L47.8324 292.166L47.7095 291.107C46.8269 283.434 47.3165 275.139 49.1628 266.462L49.1936 266.323C51.9883 255.642 56.1574 244.748 61.5866 233.949C64.9829 227.196 68.9148 220.399 73.2991 213.703L59.861 202.722L123.701 194.086Z" fill="#B27733"/>
    <path fill-rule="evenodd" clip-rule="evenodd" d="M232.508 162.849L230.91 100.732L246.348 113.349C263.58 85.4867 268.866 58.3497 260.831 38.4863L257.947 31.3555L264.983 34.453C281.077 41.5266 295.429 51.4693 307.635 63.9998L308.379 64.7665L308.502 65.8254C309.385 73.501 308.895 81.7939 307.047 90.4712L307.018 90.6118C304.221 101.293 300.052 112.187 294.623 122.986C291.227 129.739 287.295 136.536 282.91 143.229L296.348 154.213L232.508 162.849Z" fill="#B27733"/>
    <path fill-rule="evenodd" clip-rule="evenodd" d="M194.275 231.443L256.353 229.844L243.742 245.289C271.589 262.532 298.706 267.822 318.559 259.782L325.686 256.897L322.59 263.938C315.519 280.038 305.582 294.399 293.062 306.615L292.294 307.358L291.235 307.481C283.567 308.364 275.279 307.874 266.605 306.029L266.465 305.998C255.793 303.199 244.904 299.03 234.113 293.597C227.364 290.199 220.572 286.262 213.88 281.875L202.903 295.321L194.275 231.443Z" fill="#B27733"/>
    <path fill-rule="evenodd" clip-rule="evenodd" d="M162.733 126.53L100.656 128.129L113.264 112.681C85.4199 95.4387 58.3023 90.1488 38.4493 98.1891L31.3252 101.076L34.4185 94.035C41.4877 77.9324 51.4263 63.572 63.9467 51.3556L64.7129 50.6131L65.7711 50.4901C73.4418 49.607 81.7294 50.0968 90.4035 51.9422L90.544 51.9751C101.218 54.7716 112.105 58.9433 122.895 64.376C129.644 67.7723 136.437 71.7089 143.128 76.0959L154.105 62.6493L162.733 126.53Z" fill="#B27733"/>
    <path fill-rule="evenodd" clip-rule="evenodd" d="M311.418 177.476C311.418 250.829 251.992 310.29 178.688 310.29C105.381 310.29 45.9561 250.829 45.9561 177.476C45.9561 104.125 105.381 44.6621 178.688 44.6621C251.992 44.6621 311.418 104.125 311.418 177.476Z" fill="#D98F40"/>
    <path fill-rule="evenodd" clip-rule="evenodd" d="M130.137 130.716C122.407 127.221 116.824 123.699 111.019 119.552C102.154 113.489 94.0793 106.591 87.2362 99.4401C70.5863 82.45 61.8705 65.08 64.2921 50.8975L59.3173 56.1368C47.2096 68.8848 31.1415 91.1779 31.001 100.877L31.2974 101.9C33.4467 109.319 37.102 116.777 42.1536 124.068L42.237 124.187C48.753 134.769 61.7673 152.036 107.864 172.277L99.7127 187.604L161.924 170.882L139.513 113.229L130.137 130.716Z" fill="#FEFEFE"/>
    <path fill-rule="evenodd" clip-rule="evenodd" d="M226.869 227.259C234.601 230.754 240.182 234.276 245.987 238.423C254.854 244.487 262.927 251.382 269.77 258.535C286.422 275.523 295.135 292.897 292.714 307.076L297.691 301.838C309.798 289.09 325.864 266.797 326.007 257.098L325.708 256.075C323.559 248.656 319.906 241.196 314.852 233.905L314.769 233.788C308.255 223.206 295.238 205.939 249.142 185.698L257.293 170.371L195.082 187.093L217.495 244.746L226.869 227.259Z" fill="#FEFEFE"/>
    <path fill-rule="evenodd" clip-rule="evenodd" d="M228.328 130.228C231.818 122.491 235.34 116.907 239.485 111.098C245.542 102.228 252.438 94.1479 259.581 87.3005C276.563 70.6378 293.922 61.9187 308.095 64.3418L302.857 59.3616C290.12 47.2463 267.841 31.1701 258.15 31.0273L257.125 31.3261C249.709 33.4768 242.258 37.1322 234.971 42.1893L234.852 42.2727C224.277 48.7928 207.021 61.8154 186.793 107.942L171.476 99.7849L188.187 162.035L245.803 139.608L228.328 130.228Z" fill="#FEFEFE"/>
    <path fill-rule="evenodd" clip-rule="evenodd" d="M127.878 226.705C124.385 234.442 120.866 240.026 116.721 245.832C110.662 254.705 103.768 262.785 96.6241 269.632C79.6427 286.295 62.2858 295.014 48.1123 292.591L53.3483 297.571C66.0861 309.684 88.365 325.763 98.0555 325.903L99.0808 325.607C106.497 323.456 113.948 319.801 121.235 314.741L121.353 314.66C131.928 308.14 149.184 295.117 169.415 248.991L184.73 257.148L168.019 194.897L110.402 217.322L127.878 226.705Z" fill="#FEFEFE"/>
</svg>
