<svg width="28" height="20" viewBox="0 0 28 20" fill="none" xmlns="http://www.w3.org/2000/svg">
<path d="M11.875 17.5C11.5417 17.5 11.25 17.375 11 17.125C10.75 16.875 10.625 16.5833 10.625 16.25L10.625 3.75C10.625 3.41667 10.75 3.125 11 2.875C11.25 2.625 11.5417 2.5 11.875 2.5L16.25 2.5C16.5833 2.5 16.875 2.625 17.125 2.875C17.375 3.125 17.5 3.41667 17.5 3.75V16.25C17.5 16.5833 17.375 16.875 17.125 17.125C16.875 17.375 16.5833 17.5 16.25 17.5H11.875ZM3.75 17.5C3.41667 17.5 3.125 17.375 2.875 17.125C2.625 16.875 2.5 16.5833 2.5 16.25L2.5 3.75C2.5 3.41667 2.625 3.125 2.875 2.875C3.125 2.625 3.41667 2.5 3.75 2.5L8.125 2.5C8.45833 2.5 8.75 2.625 9 2.875C9.25 3.125 9.375 3.41667 9.375 3.75L9.375 16.25C9.375 16.5833 9.25 16.875 9 17.125C8.75 17.375 8.45833 17.5 8.125 17.5H3.75ZM3.75 3.75L3.75 16.25H8.125L8.125 3.75L3.75 3.75Z" fill="#F4F4F5"/>
<path d="M28 10.5714H24.5714V14H23.4286V10.5714H20V9.42857H23.4286V6H24.5714V9.42857H28V10.5714Z" fill="#F4F4F5"/>
</svg>
